<?xml version="1.0" encoding="utf-8"?>
<!-- Generator: Adobe Illustrator 23.1.0, SVG Export Plug-In . SVG Version: 6.00 Build 0)  -->
<svg version="1.1" id="Layer_1" xmlns="http://www.w3.org/2000/svg" xmlns:xlink="http://www.w3.org/1999/xlink" x="0px" y="0px"
	 viewBox="0 0 391 221" style="enable-background:new 0 0 391 221;" xml:space="preserve">
<style type="text/css">
	.st0{fill:#0668B1;}
	.st1{fill:#FFFFFF;}
</style>
<g>
	<rect x="1.7" y="1.7" width="387.5" height="217.6"/>
	<path class="st0" d="M391,221H0V0h391L391,221L391,221z M3.5,217.6h384.1V3.4H3.5V217.6z"/>
</g>
<g>
	<path class="st0" d="M77.6,143.6c0.4-2.3,0-4.8-0.4-6.9c-0.2-1.3-0.5-3-0.3-3.4c2.8-3.6,2.4-8.1,1.9-13c-0.2-2.1-0.4-4.3-0.4-6.6
		c0-1.8,0-4.5,0-5.4c0.3-0.4,0.4-0.7,0.4-1.1c0-0.8-0.8-1.4-1.5-2c-0.5-0.4-1.1-0.8-1.3-1.3c-2.3-5.1,0-14.7,0-14.8l0.1-0.5
		l-0.4-0.3c-0.9-0.6-1.1-0.9-1.1-0.8c0-0.6-0.2-1.1-2.3-3.2L71.9,84l-0.5,0.7c-0.1,0-0.4-0.3-0.5-0.9c-0.2-0.5-0.1-0.8-0.1-0.8
		l0.2-0.2c0.2-0.3,1.9-3,1.2-4.7c-0.2-0.5-0.6-1-1.7-1.3c-3.2-0.3-5.2-1.8-5.6-2.4c1.5-1.7,5.6-6.8,7.4-10.1l4.7-8.8
		c1.8-1.8,1.4-4.8,1-8.3c-0.2-1.7-0.5-3.7-0.5-5.7c0-3.9-2.6-10.9-6.7-13.7c-1.6-1-3.3-1-4.1-1c-0.2-0.2-0.4-0.3-0.7-0.5
		c-0.9-0.6-2.2-1.5-2.6-3l-0.1-0.4L62.8,23c-4.3-0.7-6.9-0.6-10.2-0.3c-2.1,0.2-4.6,0.4-8.6,0.4l-6.8-0.2c-0.1,0-8.8,0.4-10.9,1.6
		h-6.9l-0.2,0.3c-0.4,0.7-0.7,1-0.8,1.1c-0.5,0.5-0.5,0.7-0.5,2.4c0,0.5,0,0.8,0,1c0,0.7,0,1,0.5,1.3c0.1,0.1,0.3,0.2,0.9,1.1l4.2,4
		c0.1,0.1,0.2,0.2,0.4,0.4l-0.6,0l0.8,0.6c0,0,0,0.1,0,0.1c0.1,0.6,0.7,0.7,1,0.7c0.2,0.2,0.4,0.3,0.6,0.3l0.5,0l0.1-0.3l0.9,0
		c0.2,0.3,0.4,0.5,0.6,0.6c0,0,0,0.1,0,0.1c0,0.3,0,0.6,0,1.3c0,0.6,0,1,0.1,1.3c0,0.2,0,0.3,0,0.4c-0.1,0.1-0.5,0.4-0.9,0.7
		l-0.4,0.3v32.7l1.4,2.3c0.2,2,0.2,4.3,0,4.7c-0.1,0.2-1.1,1.6-1.3,3l-0.1,9.4l1,2.1l0.3,6.3c-0.1,0.3-0.5,0.9-1.4,1l-0.7,0.1l0,0.7
		c0.1,2.2,0,6-0.1,10.5c-0.1,4-0.3,8.6-0.3,13.3c0.4,3.3,0.7,7.7,0.9,10.3c0.1,1.3,0.2,2.2,0.2,2.5c0.6,4.6,0.5,7.5,0.3,11.6
		c-0.1,2.6-0.3,5.7-0.3,9.9c-0.9,5-2.5,10.9-2.9,11.5c-0.7,0.7-3,1.6-3.8,2l-1.3,0.5l1.2,0.8c0.2,0.1,0.7,0.6,1.2,1l1,0.9l0.3-0.6
		c0.2,0,1.2,0,2.2,0.1c1.6,0.2,3.2,0.3,3.9-0.1c1,0.2,4.7,0.7,7.7,0.7c2.9,0,4.4-0.5,4.9-1.6c0.7-0.6,1.2-1,1.7-1
		c0.4,0,0.8,0.3,1.2,0.9c0.4,0.5,0.9,1,1.6,1c0.5,0,1-0.3,1.4-0.8c0.6-0.4,4.8-1.2,8.4-1.8l0.4-0.1l0.1-0.4c0.6-1.5,2.5-2.9,4.5-4.4
		c0.4-0.3,0.9-0.6,1.3-0.9c2.9-2.2,8.2-4.6,8.2-4.6l0.4-0.2l0-0.4c0-0.1,0.5-5.5,1.8-8.7c1-2.6,3.6-6.4,3.7-6.5
		C75.5,149.9,77.1,146.2,77.6,143.6z M60.8,133.4c0.2,1-1.9,8.8-2.4,9.1c-0.8,4.1,0.2,9.3-1.9,11.2c-1.7,1.2-4.3,5.9-7,6.1l-2.9,2.6
		c-1.7,0.7-4.6,1-4.6,1s3.4-6,2.7-5.2c-0.1,1.7-0.3-5-0.3-5c0-18.4-0.4-7.2,0.3-11.7c0.1-0.9,0.7-1.1,1.3-1.7v-23.6
		c-0.9-0.4-1.4-1.1-1.3-2.1c0.1-0.8,0.5-1.4,1.3-1.7l1.3-6.2c0,0-1.8-7.1,0-9.3c0.3-3.3,0-13.6,0-13.6l4,4.2c0,0,2.8,2.7,5.2,4
		c0,0,3.3,2.9,1.9,4.2c-1,0.7,2.2,3,0,3.1c0,0,2.2,2.4,1,4.9c1.7,0.9-0.6,5.2-0.6,6.8c0,5.4,2.1,1.6,2.1,8.1
		c-4.3,3.1,2.2,9.1-0.5,11C62.2,130.5,60.2,132.3,60.8,133.4z M59.7,45.5c-0.4,0.2,1.3,4.8,1.3,4.8c-1.7,0.9-1.3,9.4-1.3,11
		c-7.6,0.6-5.8,6.9-9.3,8c-0.2,0.1-0.8-1-3.2,0V43.7c2.1-1.1,0.8-1.1,1.7-3.6c-0.4,0.1-0.5,0.1,0.2-0.6c-0.1,0.2-0.2,0.4-0.2,0.6
		c0.4-0.2,1.2-0.6,1.2-0.6c0.2,0.5,0.2,0.9,0,1.4l4.8-0.7h1c1.9,4.2,3.4,1.9,6.4,3.5L59.7,45.5z"/>
	<path class="st0" d="M178.8,175.3v-16.5l-0.7,0c-0.1,0-11.9-0.4-23.2-0.4c-20.3,0-21.1,1.2-21.6,1.8c-0.1,0.1-0.1,0.2-0.1,0.3
		c-1.8,1.1-3.8,1.6-6,1.6c-2.6,0-5.1-0.7-7-1.3c-1.8-0.5-3.1-0.9-4-0.6l-1,0.6c-1.3,0.8-1.8,1.1-2.7,2.5c-2.5,0.4-4.7,0.3-6.9,0.1
		c-0.9-0.1-1.8-0.1-2.9-0.2c-0.1-2.4-0.7-3-1.4-3.6c0,0,0-0.1,0.1-0.4l0.1-0.2c0.2-0.7,0.3-1,0.9-1.5l0.3-0.2v-8.7
		c0.3-0.3,0.6-0.5,1-0.8l0.3-0.2v-6c0.2-0.2,0.3-0.3,0.4-0.4c0.8-0.7,0.9-0.9,0.9-2.4v-0.2c0-1,0-1.2-0.5-1.8
		c-0.2-0.2-0.4-0.4-0.7-0.9c0.1-0.3,0.2-0.6,0.3-1c0.4-1.4,0.6-1.9,1.6-2.1l0.6-0.1l0-0.6c0-0.6,0.2-6.1,0-7.4l-0.1-0.3l-0.2-0.2
		c-0.3-0.2-0.6-0.5-1-0.8v-9.1c0.3-0.3,0.6-0.5,1-0.8l0.3-0.2l0-0.3c0.2-2.5,1.5-24.9-0.1-28c-0.5-1-1-1.3-1.6-1.7
		c-0.3-0.2-0.6-0.4-0.9-0.7V56c0.3-0.3,0.6-0.5,1-0.8l0.3-0.2v-6.3l-0.3-0.2c-2.1-1.5-2.3-2.3-2.3-2.3c0,0,0,0,0,0l0-0.2
		c0-0.7,0.1-0.9,1-1.5l0.3-0.2V31.2l-0.3-0.2c-1.7-1.2-5.6-6-5.6-6.1l-0.2-0.2c-0.4-0.2-1-0.2-1.4-0.1c-0.2,0.1-0.4,0.1-0.6,0.1
		c-0.3,0-1.2,0-2.8-2.6l-0.2-0.3H82.4c-0.2-0.3-0.5-0.6-0.7-1l-0.2-0.4h-2.6L78.8,21c-0.2,1.1-0.3,1.2-0.6,1.5
		c-0.1,0.2-0.3,0.3-0.5,0.6l-0.5,0.6l0.6,0.4c4.8,3.5,5.4,5.1,5.7,5.9c0.1,0.4,0.3,0.8,0.9,1.2c0.1,0,0.2,0,0.3,0l0.2,0
		c0.1,0,0.3,0,0.6,0c1.6,0,2.2,0.3,2.4,0.7c0,0,1.9,3.5,2.2,7c0.1,1.1-1.5,5.3-2.1,6.1l-0.5,0.6l0.6,0.4c0.4,0.3,0.7,0.5,1,0.8
		c0.4,1.9,0.1,6.9,0,9c-0.3,0.3-0.6,0.6-0.8,0.8c-0.5,0.5-0.8,0.9-1.5,1.3l-0.3,0.2v10.8l0.3,0.2c0.4,0.3,0.6,0.5,1,0.8v19.4
		l0.3,0.2c0.4,0.3,1.2,1.3,1.3,2.4c0.1,1.3-1,2.8-1.3,3l-0.3,0.2V109l0,0c-0.3,0.3-0.6,0.5-0.9,0.7l-0.2,0.2l0,0.3
		c0,0.2-0.7,4.3,0,9.3c0,0.1-0.1,0.2-0.1,0.2c-0.2,0.3-0.2,0.4-0.7,0.6l-0.4,0.2l0,17.8l0.3,0.2c1.2,0.8,2.3,1.7,2.3,3.2
		c0,0.3,0,0.5,0,0.7c0,0.1,0,0.3,0,0.3c-0.1,0.1-0.6,0.5-1,0.8l-0.3,0.2v4.5l-0.1,0.1c-0.3,0.2-0.5,0.5-0.9,0.7l-0.3,0.2v10.4l0,0.4
		l0.3,0.2c0.7,0.5,0.9,0.7,0.9,1.1c0,0.5-0.4,0.8-1,1.1l-0.3,0.2v5.9c-1.7,1.6-2.5,2.1-3,2.5c-0.4,0.3-0.8,0.6-1.4,1.2l-3.9,2.1
		l-0.1,0.3c-0.2,1.1-0.3,1.2-0.6,1.5c-0.1,0.2-0.3,0.3-0.5,0.6l-0.5,0.6l0.6,0.4c0.6,0.4,0.8,0.7,1.1,1.2l0.4,0.6l0.6-0.4
		c0.4-0.3,1.5-0.6,3.8-0.6c3.4,0,7.5,0.7,7.5,0.7l0.6,0.1l0.2-0.5c0.5-1.4,5-4.7,7.9-6.5h4.6c0.5,0,3,0.8,3.6,1.7l0.2,0.3l5.8,0
		c15,0,24.6,0.1,26.7,0.2c0,0,0.1,0.1,0.1,0.1c0.4,0.6,0.9,1.5,2.9,1.7H154c1,1.2,1.9,1.5,2.8,1.3c0.1,0,0.2,0,0.3,0
		c0.1,0,0.4,0,1.1,1.1l0.2,0.3h4.2l0,0.1c0.2,0.3,0.4,0.6,0.7,1l0.2,0.3H182l-0.7-1.1C180.1,178.2,179,175.8,178.8,175.3z"/>
	<path class="st0" d="M108.1,28.2c0.5,0.7,0.9,0.9,2.3,0.9c0.4,1.1,1.6,1.4,2.7,1.7c1.5,0.4,2.4,0.8,2.7,1.8l1.7,28l0.3,0.2
		c0.2,0.1,0.4,0.2,0.6,0.3c0.3,0.1,0.4,0.2,0.4,0.2c0,0,0,0,0,0c-0.2,0.1-0.5,0.3-1,0.7l-0.3,0.2l0.4,54.6c-1.1,1.3-1.7,3.9-1.7,5.5
		c0,1.5,0.5,2.3,0.9,3c0.2,0.4,0.4,0.8,0.4,1.2c0,0.3,0,0.6,0,0.8c0,0.6,0,0.6-1,1.4l-0.3,0.2l0,0.4c0,0.1,0.1,13.6-1.1,17.4
		l-0.6,0.4c-2.2,1.5-2.3,1.6-3.1,2.7c-0.4,0.6-1,1.4-2.2,3l-0.5,0.6l0.6,0.4c0.4,0.3,0.7,0.6,0.9,0.9c0.3,0.3,0.5,0.6,0.9,0.6
		c0.1,0.1,0.3,0.2,0.6,0.2c0.5,0,1.1-0.3,3.1-2.3c1.4-0.5,5.8-0.9,9.8-0.9c4,0,4.8,0.4,4.9,0.5l0.3,0.2l0.4-0.2
		c1-0.5,1.6-0.6,1.9-0.6l0.1,0.1l1.2,0c0.5,0,1,0.1,1.8,0.4l1.1,0.4l-0.7-5.1l-0.2-0.2c-2.8-2-4.6-3-5.8-3.7
		c-2.1-1.2-2.2-1.2-2.8-3.9c-0.1-0.3-0.2-0.6-0.2-0.9c-0.4-1.5-0.6-2.4,0.1-3.3c0.3-0.3,0.5-0.5,0.9-0.7l0.5-0.4l0.7-9.5l0.1-0.3
		l-0.3-0.2c-0.4-0.5-1.7-4.2-1.7-4.8c0.1-2.4-0.4-4.2-0.8-5.6c-0.5-1.9-0.8-2.9,0.6-4.3c0.4-0.4,0.7-0.6,1.2-0.9l0.3-0.2l0-0.3
		c0-0.1,0.4-2.9,0-5.4l0-0.3l-0.3-0.2c-0.2-0.3-0.2-1.6-0.2-2.2c0-0.6,0-1.2-0.1-1.6c-0.6-2.7-0.4-3.9-0.3-4.4c0-0.2,0-0.3,0-0.4
		c0-0.3,0-0.6-0.1-1.1c-0.2-1.5-0.4-3.7,0.7-5c0.4-0.4,0.6-0.6,1.2-0.9l0.4-0.3l-0.7-4l0-0.3l-0.3-0.2c-0.1-0.2-0.3-1.1-0.4-1.6
		c-0.1-0.9-0.3-1.8-0.6-2.2c0.9-6.3,0.5-19.5,0.2-28.3c-0.1-3.3-0.2-6.1-0.2-7.7c0-0.4,0.2-0.6,0.6-0.9c0.6-0.4,1.3-1,1.3-2.5
		c0-1.6-0.3-2.1-1-2.4c-0.1-0.1-0.3-0.2-0.3-1.7c0-2.5,3.3-5.1,6.3-5.9l0.5-0.1v-2.9l-0.2-0.2c-0.2-0.2-0.4-0.4-0.5-0.6
		c-0.4-0.5-0.7-0.8-1-1.4l-0.3-0.5l-0.5,0.2c-1,0.4-5.4,0.6-11.1,0.6c-6,0-11.5-0.3-12.7-0.6l-0.5-0.2l-0.3,0.5
		c-0.1,0.2-0.6,0.8-1,1.3l-0.7,0.9l0.6,0.4C107.7,27.5,107.9,27.9,108.1,28.2z"/>
	<path class="st0" d="M185.2,117.6l0-0.7h-3.9l-0.2,0.2c-0.8,0.9-1.1,1.9-1.3,2.8c-0.3,1.3-0.6,2.5-2.9,3.6
		c-0.2-0.3-0.4-0.5-0.6-0.9l-0.4-0.8l-0.6,0.6c-1.3,1.2-2.1,3.9-2.4,5.4c-4.3,0.4-7.2,5.2-9.2,8.3c-0.8,1.2-1.6,2.6-2,2.8
		c-2.6,1.2-4.1,1.2-5,1.2c-0.4,0-0.8,0-1.1,0.2c-1.9,0.9-3.1,1.6-4,2.1c-1.4,0.8-1.8,1-2.4,1c-0.4,0-0.7,0-0.9,0.1
		c-0.1,0-0.2,0-0.2,0c-0.1-0.1-0.3-0.4-0.6-0.8c1-1.7,2.6-5.9,4.6-11.6c1.1-2.9,2.3-6.2,2.6-6.7l-0.3-0.4l0.6-0.1v-3.5
		c0.1-1.5,6.5-19.7,10.8-21.5l0.5-0.2l-0.1-0.6c-0.2-1-0.6-3.9,0-5.5c1-2.7,6-4.8,6-4.8l0.4-0.2v-6.1c0.9-1,1.6-3.1,2.6-5.7
		c1.3-3.7,3-8.2,5.2-9.8l0.4-0.3l-0.1-0.5c0-0.1-1.5-5.4,1.1-7.6l0.2-0.2V34.1c0-1-0.4-1.5-0.8-2c-0.3-0.4-0.5-0.6-0.5-1.1v-7.3H180
		c-8.8,0-13.7,0-18.5-0.1c-4.9,0-9.8-0.1-18.9-0.1h-0.8l0.1,0.8c0.1,1-0.8,2.4-1.1,2.9l-0.1,0.2v12.4l0.3,0.2
		c0.5,0.3,0.8,0.5,1.2,0.9c2,2,0.6,7.4-0.2,9.3l-0.2,0.5l0.5,0.3c0.1,0.1,0.1,0.6,0.2,0.9c0,0.3,0.1,0.6,0.1,0.9
		c0.3,1.7,0.7,4.3,0.7,4.3l0,0.3l0.2,0.2c1.1,0.8,1,1.1,1,1.7c-0.1,0.9-0.1,1.8,1.2,3.1l0.6,0.6l0.6-1c1.9-3.1,2.5-4.1,2.5-5V46.7
		c0-1.5,3.3-3.1,4.4-3.1h0.7v-0.7c0-5.3,3.1-6.8,5.5-8.1c0.8-0.4,1.6-0.8,2.1-1.3l13.8,0.1V42c-2.2,2-3.6,4.2-5,6.1
		c-1.3,1.8-2.3,3.4-3.7,4.4l-0.1,0.1l-0.1,0.2c-1.4,3-0.5,7.1-0.2,8.4c-4,3.7-4.9,5.8-5.1,6.7c-3,2.2-3,2.3-3.1,2.4
		c-2.2,3.3-4.5,14.6-4.9,16.3c-4.4,4.8-4.9,8.1-5.2,9.8c-0.1,0.3-0.1,0.6-0.2,0.8c-0.5,0.6-3.2,3.8-4.5,6.3c-0.8,1.5-1,3.2-1.3,4.7
		c-0.2,1.5-0.4,2.9-1.1,3.4l-0.3,0.2l0,0.4c0,1.1-0.3,2.8-0.6,4.6c-0.5,2.9-1.1,6.2-0.7,9l0,0.2l0.1,0.1c0.1,0.1,1.6,2.1,0,4.3
		l-0.4,0.6l0.6,0.4c0.6,0.4,2.2,3.7,2.3,4.3c0,0.3,0,0.5,0,0.7c0,0.1,0,0.3,0,0.3c-0.1,0.1-0.6,0.5-1,0.8l-0.3,0.2v8.3
		c-1.3,1.2-1.9,2-1.9,2.4c0,0.8,0.3,1.2,0.6,1.5c0.2,0.2,0.4,0.5,0.8,1l0.2,0.3h10c1.4,1.4,4,2,4.3,2.1l0.1,0c1.3,0,1.9-0.8,2.3-1.5
		c0.5-0.7,0.9-1.3,2.5-1.3c0.6,0,1,0,1.2-0.1c0.1,0,0.2,0,0.3-0.1c0.1,0.1,0.4,0.5,0.7,1l0.3,0.5h14.9l0.2-0.3
		c0.7-1.2,3.9-2.4,4.5-2.4h0.7l0-0.7c-0.5-8.2-0.6-17.4-0.1-18.9c0.7-0.7,0.9-1.5,1.1-2.1c0.3-0.9,0.4-1.4,1.5-1.7l0.8-0.2l-0.3-0.7
		C185.1,123.2,185.1,119,185.2,117.6z"/>
	<path class="st0" d="M239.8,143.6c0-1.3-0.7-2.1-1.3-2.9c-0.2-0.3-0.5-0.6-0.7-1l-0.2-0.3h-6.5c-0.4-0.5-0.7-0.8-1.1-1.2l-0.6-0.6
		l-0.4,0.7c-2.1,3.4-3.7,4-5.9,4.9c-1.4,0.5-2.9,1.2-4.8,2.5c-0.3,0.2-1.2,0.5-2.1,0.8c-1.7,0.5-3.9,1.1-5.1,2.4
		c-1,1.1-1.2,2.3-1.3,3.3c-0.1,1.1-0.2,1.3-0.4,1.3c-1.1,0-2,0.2-2.8,0.3c-1.6,0.3-2.9,0.4-4.2-0.2l-0.6-0.3l-0.4,0.7
		c-0.2,0.3-0.5,0.8-0.6,0.9c-0.2,0-0.3-0.1-0.7-0.5h0c0.6-1.2,1-2.1,1.1-2.8c0.5-1.1,1.3-3.3,1.2-4.6c1-1.5,4-6.8,4.6-10.7
		c0.3-2.3,0.1-5.8,0-6.6l3.8-11l0-14.1c0.5-2,1.3-2.9,2.1-3.7c0.6-0.7,1.3-1.3,1.7-2.5l0-4.4c1.8-1.9,2.5-4.8,3.1-7.4
		c0.5-2,0.9-3.8,1.7-4.4l0.3-0.2l0.4-12.8c-0.3-1.8,0.2-3.2,0.9-4.8c0.4-1,0.9-2.1,1.2-3.4c0.6-3.1,1.4-7.9,1.4-8
		c0.1-1.3,0.5-1.6,1.1-1.9c0.5-0.3,1.1-0.7,1.4-1.7c0.4-1.5,0.2-3.6,0.1-4.4l0.8-0.7c1.8-1.7,2.4-2.3,3-4.5c0.4-1.5,0.2-3.6,0.1-4.4
		c2.4-2.4,3.4-5.1,4.1-7.1c0.4-1,0.7-1.9,1.1-2.4l0.2-0.2v-2l-0.9,0c-0.2,0-0.4,0-0.5,0l-0.1,0c-0.1-0.1-0.6-0.8-0.7-1.1l-0.2-0.3
		h-0.4c-16.1,0-26.2,0-32.6,0l-6.7,0c-2.5,0-3.5,0-3.9,0l-0.7,0v23.9c-1.3,1.2-1.9,2.2-1.9,3.1c0,0.7,0.2,1.3,0.3,1.8
		c0.3,1.1,0.6,2-0.3,4.5l-0.2,0.5l0.5,0.3c0.2,0.1,0.8,0.6,1.2,1l0.9,0.8l0.4-0.7c0.6-1,1.1-1,1.5-1l0.7,0c1.9,0,3.1-1.4,4.3-8.9
		c1.3-7.7,3.4-10.8,4.1-10.8c0.3,0,0.8-0.1,1.4-0.3c0.8-0.2,2-0.5,3-0.5c0.8,0,1.4,0.2,1.9,0.6c0.3,0.3,0.5,0.6,0.7,1l0.3,0.6h6.8
		c0.2,0.2,0.3,0.3,0.4,0.4c0.1,0.1,0.1,0.1,0.2,0.3c0,0.1,0,0.4-1,1.1l-0.3,0.2v4.6c-3.6,3.6-9,15.8-9,16.9c0,0,0.2,2.3,0,3.7
		c-0.3,2.3-1.7,4.8-2.7,6.6c-0.7,1.2-1,1.8-1.1,2.4c0,0.4,0,0.7,0,1.2l0,0.9c0,1.9-1.7,3.6-1.7,3.6l-0.2,0.2v0.3
		c0,0.3,0,0.4-0.1,0.6c-0.1,0.4-0.1,0.8,0.1,1.3c0.2,0.5,0.6,0.9,0.9,1.1c0.2,0.2,0.3,0.3,0.3,0.3l-7.6,20.3
		c-0.1,0.6-2.8,13.8,0,21.8c0.2,0.6,0.5,1,0.7,1.3c0.3,0.5,0.6,0.9,0.6,1.7c0,0.1,1,5.7,0,9c-0.2,0.6-0.5,1.4-0.8,2
		c-0.4,0.8-0.5,1-0.5,1.3l0,0.2c0.3,0.8,0.7,2.7,0.1,3.5c-0.2,0.3-0.5,0.4-0.8,0.7l-0.7,0.5l0.1,0.5c0.2,0.7,0.6,2.9,0,4
		c-0.4,0.8-1,1.2-1.8,1.8l-1,0.7l0.2,0.5c0.2,0.7,0.8,2.9,0.1,3.8c-0.3,0.3-0.5,0.5-0.8,0.7l-0.6,0.4v5.2c0,0.2,0,0.5-0.1,0.7
		c-0.2,1.2-0.4,3.1,1.2,4.9l0.2,0.2h0.3c1.7,0,3.8-0.9,5.5-1.6c0.8-0.4,1.6-0.7,1.9-0.8c1.2,0,2.5,0,3.8-0.1
		c1.8-0.1,3.8-0.1,6.6-0.1l0.2,0c1.7-0.6,3.7-1.9,4.9-3.2l6.1,0.7l0.1,0.1c0.2,0.3,0.4,0.6,0.6,0.9l0.2,0.3h19.5l0.1-0.6
		c0.1-0.4,0.1-0.7,0-0.9c0.2-0.2,0.6-0.5,1-0.7l0.3-0.2v-12.1c0-0.6-0.3-1-0.5-1.5c-0.4-0.6-0.8-1.4-0.8-2.7c0-1.8,0.5-2.3,0.8-2.8
		C239.5,144.4,239.8,144.1,239.8,143.6z"/>
	<path class="st0" d="M270.6,105.5l-0.1-0.1c-0.5-1.6-1.9-12.3-1.7-14l0.4-0.1v-7.6l-0.3-0.2c-1.1-0.8-1.1-1.1-1-1.6
		c0.2-0.9,0.2-1.8-1.3-3.3V73l-0.3-0.2c-0.3-0.2-0.6-0.5-0.9-0.7l-0.1-0.1l-4-15.9c0-0.1-4.6-11.9-4.6-15.2v-3.8
		c0-0.8-0.3-1.1-0.7-1.6c-0.6-0.7-1.8-2.1-3.8-6.6c-0.1-0.2-0.2-0.8-0.2-1.4c-0.3-2.3-0.9-6.6-4.2-6.6c-0.9,0-1.6,0.3-2.1,0.8
		c-1,1-0.9,2.6-0.9,4.2c0,2.2-0.1,3.3-1.2,3.4l-0.3,0.1c-1.3,0.8-1.6,1.3-1.8,1.9c-0.1,0.3-0.2,0.5-0.9,0.9l-0.3,0.2v5.6
		c-1.2,1.2-1.5,1.8-1.9,2.7c-0.1,0.3-0.3,0.7-0.5,1.1c-1.3,2.4-2.5,6.2-2.8,7.2c-0.1,0.1-0.2,0.1-0.3,0.2c-0.3,0.2-0.6,0.4-1,0.8
		c-0.8,1-0.5,2-0.3,2.9c0.1,0.5,0.3,1.1,0.2,1.7c-1.3,1.2-2,3-2.9,5l-0.6,1.3c-1,2.2-1.2,4.8-1.4,7c-0.2,2.7-0.4,5.1-1.9,6l-0.3,0.2
		v0.4c0,4-1.4,7.1-1.4,7.1c-0.3,0.6-0.7,1.1-1,1.6c-0.6,0.8-1.1,1.6-1.5,2.9c-0.4,1.4-0.3,2.3-0.1,3.3c0.2,0.9,0.3,1.9,0,3.6
		c-0.3,2,0.2,2.6,1.1,3c0.1,0,0.2,0.1,0.2,0.2c0,0.7-0.1,0.9-1,1.5l-0.3,0.2v5.6c-0.1,0-0.1,0.1-0.2,0.1c-0.3,0.2-0.6,0.4-0.9,0.8
		c-1.5,1.8-0.6,5.2-0.2,6.3c-0.3,0.7-0.6,2.5-1.2,7.6l0,0.4l0.5,0.4c0.3,0.2,0.8,0.5,0.8,0.7c0,0.3-0.7,0.7-1.3,1
		c-0.9,0.5-2,1.1-2.6,2.1c-1,1.6-1.2,4.3-1.2,5.2c-1.6,1.4-2.1,2-4.5,5.2l-0.3,0.4l0.3,0.4c0.7,1.1,0.8,1.4,0.8,1.8
		c0.1,0.6,0.2,1.2,1,2.4l0.3,0.5l0.5-0.2c0.1,0,7-2.6,13-4.6c0.4-0.1,1.3-0.2,3.5-0.2c3.2,0,7.1,0.2,7.1,0.2l0.6,0l0.1-0.6
		c0.2-0.9,0.8-1.7,1.3-2.3c0.5-0.7,0.9-1.2,0.7-1.7c-0.1-0.2-0.3-0.5-0.8-0.6c-0.5-0.1-1.1-0.7-1.6-1.2c-0.6-0.6-1.3-1.2-2.1-1.5
		v-6.7l-1-3.1h1.9c0.8,0.8,2.8,1.9,5.9,3.6c3.3,1.8,9.5,5.2,9.4,6.4c-0.4,11.2-8.1,19.5-8.1,19.6l-0.2,0.2v0.3c0,3.5,2.2,5.7,4,7.5
		c1.3,1.3,2.4,2.4,2.4,3.6v3.8l3.8,12.6v8.3l1-0.6c0.2-0.1,0.4-0.2,0.5-0.3c0.2,0.2,0.4,0.3,0.7,0.3c0.8,0,1.1-0.4,1.4-0.7
		c0.2-0.2,0.4-0.5,0.9-0.8l0.3-0.2v-5.9c0.3-0.3,0.6-0.5,1-0.8l0.3-0.2v-4.6c0.9-1.1,1.4-2.9,1.9-4.7c0.4-1.6,0.9-3.5,1.6-4l0.3-0.2
		v-7.3c1.7-1.9,2.9-5.6,3.9-8.8c0.7-2.3,1.5-4.9,2.2-5.4l0.2-0.1l0.1-0.2c0.8-3.2,0.7-27.3,0.2-31.4L270.6,105.5z M254.4,109.7
		c-0.5,0-1,0-1.6,0c-2.8-0.9-4.8-3.4-8.3-4.1c-2.9-0.6-5.9-0.3-7.7,0c0,0,0-0.7,1.3-1c0.6-2.1-0.5-9.4,0-12.1
		c1.1-1.2,1.3-8.6,1.3-8.6c2.9-0.2,1.7-3.3,3.8-4.8l0.3-8.6c0,0,1.3,4.8,3.1,6.8c1.5,1.6,3.5,0.9,5.3,2.5c2.2,1.9,1.2,8.7,2.6,9.7
		C254.9,92.1,254.4,109.7,254.4,109.7z"/>
	<path class="st0" d="M323.1,136.5l-0.5-0.1c-0.3-0.1-0.8-0.2-1-0.3c0-0.9,0.4-4,0.7-4.5l0.2-0.2l0-0.3c0-0.2-0.2-1.2-0.4-2.4
		c-1.2-8.7-1.8-12-2.1-12.6l-0.4-0.7l-0.6,0.4c-0.2,0.2-0.4,0.2-0.4,0.2c-0.2,0-0.4-0.4-0.8-2.3c-0.1-0.8-0.2-1.3-0.5-1.6
		c-0.3-0.7-0.4-3.9-0.5-6.3c-0.2-4.3-0.3-6.3-0.7-6.9l-0.1-0.1c-0.2-0.3-0.4-1.6-0.5-2.3c-0.1-0.9-0.2-1.5-0.4-1.9
		c-0.4-0.9-0.4-1.3-0.4-1.6c0.1-1.1-0.5-1.3-2.6-2.1c-0.1-0.1-0.2-0.7-0.2-1.1c-0.1-1.1-0.2-2.6-1.6-3.2c-2.5-3-4.3-4.2-6.1-4.2
		c-0.5,0-1,0.1-1.5,0.2c-0.4,0.1-0.8,0.2-1.2,0.2c0.5-0.5,0.5-0.9,0.5-2.3c0-0.4,0-0.8,0-1.4c7.1-0.4,12.1-6.2,15-17.6
		c0-0.1,0.1-3.1,0-5.3c0.2-0.3,0.4-0.8,0.6-1.5c0.1-0.4,0.3-1.1,0.4-1.3l0.3-0.2l0-0.3c0.1-1.1,0.4-6.9-0.1-8.3L312,30.9l-0.1-0.4
		h-0.4c-0.3-0.1-1.1-0.8-1.7-1.3c-1.8-1.6-4.4-3.8-7.2-4.2c-0.5-0.1-1.1-0.1-1.6-0.1l-1.1,0c-3.5-1.1-9-2.8-10-3.2l-0.1-0.2h-6.8
		c-0.1-0.2-0.2-0.3-0.3-0.4c-0.5-0.7-0.8-1-2-1c-1.3,0-1.6,0.1-3.3,0.9l-18.5,0.5l-0.1,1.4l4.6,1c0.2,0.1,0.5,0.4,1,0.7
		c2.3,1.6,8.3,5.9,8.6,9.4l0,0.4l0.3,0.2c1,0.5,1.7,0.4,2.4,0.2c0.1,0,0.2-0.1,0.4-0.1c0.5-0.2,0.8-0.5,1.1-0.8c0,0,0.1-0.1,0.1-0.1
		c0.7,0.2,2.7,0.7,3.8,1c-2.7,3.6-6.2,6.1-8.8,7.9c-1.3,0.9-2.3,1.6-2.9,2.3l-0.2,0.2l0,0.2c-0.4,3.1-0.4,8.9,0,11.9l0,0.3l0.2,0.2
		c0.8,0.6,1,0.8,1,0.9c-0.1,0.7,0.1,1.4,1.3,2.6l0.1,6.6l0.2,0.1c0.1,0.4,0.2,1.6,0.2,2.3c0.1,1.8,0.2,2.5,0.5,2.9
		c0.8,1.6,0.6,4.1,0.6,4.1l-0.1,0.3l0.3,0.2c0.1,0.2,0.3,1.1,0.3,1.7c0.1,1,0.2,1.6,0.4,2c-0.1,1.5,0,4.2,0,4.3l0,0.3l0.3,0.2
		c0.1,0.1,0.3,0.7,0.5,1c0.2,0.5,0.3,0.9,0.6,1.2l0.6,5.2l0,0.2l0.3,0.2c0.1,0.1,0.1,0.7,0.2,1c0,0.6,0.1,1.2,0.3,1.5
		c0,12,0,34.6,0,35.4l0,0.4l0.3,0.2c0.4,0.3,0.7,0.5,1,0.8c0.4,2.4,0.4,4.4,0.1,5.1c-1.9,2.1-5.7,15.2-6.5,17.9l0,0.2
		c0,1,1.1,1.7,3,3c3.8,2.6,11,7.4,14.9,18.1l0.8,2.2l0.5-2.3c1.6-6.8,1.2-9.5,1-10.8c0,0,0,0,0,0c0.1,0,0.1-0.1,0.2-0.1
		c0.4-0.2,0.5-0.3,0.9-0.9l0.1-0.3c0.3-1.6-0.2-5.5-0.7-9.3c-0.3-2-0.5-3.9-0.6-5.1c1.4-3.5,1.2-8.8,0.9-13.1
		c-0.1-0.7-0.5-1.2-0.8-1.7c-0.1-0.2-0.3-0.5-0.4-0.6c-0.1-0.7,0.5-1.3,0.6-1.4l0.3-0.2l0-0.3c0-0.8-0.5-5.9-1.4-14.2
		c-0.8-7.5-2-17.9-1.9-18.7l0.1-0.2l0-0.2c-0.1-0.6,0.4-1.3,0.8-2c0.2-0.3,0.3-0.6,0.5-0.8c1.6-3.3,1.7-4.3,1.4-6.3
		c2,1.3,4.9,6.6,6.5,9.7c0.3,0.6,0.7,1.2,0.9,1.7c0.2,0.5-0.3,3.3-0.6,5.4c-0.2,1.3-0.4,2.7-0.6,3.8l-0.1,0.6l0.6,0.1
		c3.1,0.7,6.5,20.1,6.4,21.8l0,0.1l0,0.1c0.3,1.7,0,14.2-0.4,16.4c-0.3,1.8-1.4,4.7-2.4,7.5c-1.8,4.9-2.4,6.9-2,7.7l0.2,0.4l0.5,0
		l2,0c2.7,0,4.5,0.3,11.3,6.9c1,1,5.1,2.3,5.9,2.5l0.7,0.2l0.2-0.8c1.7-8.1,2.3-11.9,2.6-14c0.3-1.7,0.4-2.2,0.7-2.9
		c1.1-2.7,0.3-4-0.2-4.8c0-0.1-0.1-0.1-0.1-0.2c1.2-6,0.7-8.5,0.4-9.9c-0.2-1-0.3-1.3,0.3-2.2l0.1-0.2l0-0.2c0-1.2-1.3-4.2-1.8-4.9
		L323.1,136.5z M301.4,64.1c-0.9,2-2.5,8-3.8,9.7c-0.7,0.8-2.9,2.3-5.1,2.8c-1.3,0.3-3.5,0-3.5,0V37.8c0.5,0,1,0,1.6,0
		c3.1,0,10.9,11.1,10.9,11.1c2.1,3.8,1.3,6.9,1.3,6.9v2.8c-0.4,0.2-0.7,2-1.1,1.8C301.6,60.3,301.2,62.6,301.4,64.1z"/>
	<path class="st0" d="M372.6,65.8l0.1-0.2l-0.3-0.2c-0.2-0.2-0.5-1.3-0.7-2c-0.3-1.2-0.6-1.9-0.8-2.3l0.4-13.2l-0.3-0.2
		c-0.7-0.5-0.8-0.8-1.4-2.4c-0.5-1.5-1.4-4-3.5-8.4c-0.3-0.6-1-1.2-2.1-2.1c-1.4-1.2-3.2-2.7-4.3-4.5l-0.2-0.3h-6
		c-0.3-0.3-0.5-0.6-0.7-1l-0.2-0.4h-5.5c-0.3-0.3-0.5-0.6-0.7-1l-0.2-0.4H342c-0.1-0.1-0.2-0.3-0.3-0.4c-0.4-0.4-0.7-0.8-1-1.3
		l-0.2-0.3h-4.2c-1.5-1.6-3.9-2.5-5.8-3.3c-1.4-0.5-3-1.1-3.1-1.7l-0.1-0.6h-4.4c-0.3-0.3-0.5-0.6-0.7-1l-0.2-0.3H314l0.9,1.1
		c0.4,0.5,9.1,8.8,11.4,10.9v7l-0.1,0.1c-0.3,0.2-0.5,0.5-0.9,0.7l-0.3,0.2v10.1l-0.1,0.1c-0.3,0.2-0.5,0.5-0.9,0.7l-0.3,0.2v26
		l-0.1,0.3l0.3,0.2c0.1,0.2,0.3,1.4,0.4,2.1c0.2,1.2,0.3,1.9,0.5,2.3l-0.5,9l0.3,0.2c0.3,0.2,0.6,0.4,0.9,0.7
		c-0.5,2.3-0.1,9.3,0.1,11.5c0,1,0.4,1.5,0.8,2c0.3,0.4,0.5,0.6,0.5,1.1v3.8c0,0.8,2.9,10.3,5.7,13.4l-2.3,23.2l0,0.2l2.6,6l1.5,3.7
		c0.3,0.7,0.9,0.7,1.2,0.6c0,0,0.1,0.1,0.1,0.4c0,0.5-1.6,1.4-4.7,2.7l-1.3,0.5l0.2,0.6c0,0,1.7,4.6,1.5,7.6c-0.3,3.2-1.8,6.4-4,8.6
		l-0.7,0.7l0.8,0.4c0.2,0.1,0.5,0.2,1.4,0.2c0.1,0,7.6-0.3,8.9-2.2c0.3,0,0.9,0.4,1.5,0.7c0.8,0.4,1.5,0.9,2.2,0.9
		c0.2,0,0.3,0,0.6-0.1c1.5-0.8,4.3-1.6,7-2.3c4.9-1.3,7.5-2.1,7.9-3.4c0.3-0.4,0.5-0.5,0.7-0.6c0.5-0.3,0.8-0.6,1.6-2.2
		c1.3-1.6,1.6-2.3,2.2-4.1c0.2-0.5,0.3-1,0.6-1.7l1.3-7c1.1-2.8,1.1-5.7,1.1-8.5c0-2.7,0-5.2,1-7.5c1.2-4.4-0.1-22.8-0.2-25.2
		c0.2-0.3,0.2-0.6,0.2-1c0-0.6,0-1.7,0.8-3.9l0.8-6.1c0.5-0.5,1.9-1.9,3-4.4c1.1-2,0.9-4.6,0.8-7.1c-0.1-1.2-0.1-2.3-0.1-3.2
		c0.4-0.4,0.6-1.1,0.9-1.8c0.2-0.5,0.5-1.3,0.7-1.4l0.2-0.1l0.1-0.2C373.7,81.7,372.7,67.4,372.6,65.8z M359.5,85.6L359.5,85.6
		c-1.8,1-3.1,9.3-3.1,9.3s-2.7,1.3-2.4,5.9c-0.9,2.3-0.9,28.2-0.9,28.2c-0.5,3.1-2.1,4.7-3.5,9.5c0.4,7.9-6.6,15.6-7.1,16.2
		l0.2-62.1c-1.2-0.6-2.6-6.5-2.6-8.3c0,0-0.7-1.6-1-2.2c0,0.5-0.1,0.8-0.1,0.7c-0.2-1-0.1-1,0.1-0.7c0.1-3.6-0.5-20.3-0.5-20.3
		l-0.4-1.6l0.6-5.3c3.5-0.2,4.7,0.1,8,0.1c1.9,0,2,2.8,5.1,2.8c0,3.4,3,4.1,4.8,6.6c0.6,0.8,1.3,7.4,2.9,8.3V85.6z"/>
</g>
<g>
	<path class="st0" d="M373,17.5c-3.5,0-6.5,2.7-6.5,6.4c0,3.7,3,6.4,6.5,6.4c3.5,0,6.5-2.7,6.5-6.4C379.4,20.2,376.4,17.5,373,17.5z
		 M373,29.2c-2.9,0-5.2-2.3-5.2-5.4c0-3,2.3-5.3,5.2-5.3c2.9,0,5.2,2.3,5.2,5.3C378.1,26.9,375.9,29.2,373,29.2z"/>
	<path class="st0" d="M375.9,22.3c0-1.5-0.9-2.1-2.6-2.1h-2.8v7.4h1.1v-3.2h1.3l1.9,3.2h1.3l-2.1-3.2
		C375.1,24.2,375.9,23.6,375.9,22.3z M371.6,23.4v-2.3h1.5c0.8,0,1.6,0.2,1.6,1.1c0,1.1-0.8,1.2-1.8,1.2H371.6z"/>
</g>
<g>
	<polygon class="st1" points="34.4,199.4 40.6,199.4 40.6,196.9 34.4,196.9 34.4,194 40.9,194 40.9,191.5 30.9,191.5 30.9,205.2 
		41.1,205.2 41.1,202.7 34.4,202.7 	"/>
	<polygon class="st1" points="66.4,199.9 59.1,191.5 56,191.5 56,205.2 59.4,205.2 59.4,196.4 67,205.2 69.9,205.2 69.9,191.5 
		66.4,191.5 	"/>
	<polygon class="st1" points="84.3,194 89.3,194.1 89.3,205.3 92.7,205.3 92.7,194.1 97.6,194.1 97.6,191.6 84.3,191.5 	"/>
	<polygon class="st1" points="115.5,199.5 121.7,199.5 121.7,197 115.5,197 115.5,194.1 122,194.1 122,191.6 112.1,191.6 
		112.1,205.3 122.2,205.3 122.2,202.8 115.5,202.8 	"/>
	<path class="st1" d="M145.4,198.9c1.6-0.7,2.4-1.8,2.4-3.3c0-2.1-1.7-3.9-4.5-3.9l-6.1,0v13.7l3.4,0v-5.6l1,0
		c1.8,0,2.4,2.6,3.9,5.6l3.8,0C147.2,201.3,146.8,199.6,145.4,198.9z M142.3,197.2h-1.8v-3.1l1.7,0c1.3,0,1.9,0.5,1.9,1.6
		C144.2,196.8,143.3,197.2,142.3,197.2z"/>
	<polygon class="st1" points="161.1,194.1 166,194.1 166,205.3 169.4,205.3 169.4,194.1 174.4,194.1 174.4,191.6 161.1,191.6 	"/>
	<path class="st1" d="M190.8,191.6l-5.5,13.7l3.6,0l1-2.7l6.1,0l1.1,2.7l3.7,0l-6.1-13.7L190.8,191.6z M190.8,200.2l2-5.3l2.2,5.3
		L190.8,200.2z"/>
	<polygon class="st1" points="214.9,205.3 218.3,205.3 218.3,191.6 214.9,191.6 	"/>
	<polygon class="st1" points="244.2,200 236.9,191.6 233.8,191.6 233.8,205.3 237.2,205.4 237.2,196.6 244.8,205.4 247.6,205.4 
		247.6,191.7 244.2,191.7 	"/>
	<polygon class="st1" points="270.4,196.8 266,191.7 263,191.7 263,205.4 266.4,205.4 266.4,196.8 270.1,201.1 270.7,201.1 
		274.4,196.8 274.4,205.4 277.8,205.4 277.8,191.7 274.8,191.7 	"/>
	<polygon class="st1" points="296.6,199.6 302.8,199.6 302.8,197.1 296.6,197.1 296.6,194.2 303.1,194.2 303.1,191.7 293.2,191.7 
		293.2,205.4 303.3,205.4 303.3,202.9 296.6,202.9 	"/>
	<polygon class="st1" points="328.7,200.1 321.3,191.7 318.2,191.7 318.2,205.4 321.6,205.4 321.6,196.6 329.2,205.4 332.1,205.4 
		332.1,191.7 328.7,191.7 	"/>
	<polygon class="st1" points="346.5,191.7 346.5,194.2 351.5,194.3 351.5,205.4 354.9,205.5 354.9,194.3 359.9,194.3 359.9,191.8 	
		"/>
</g>
</svg>
