<svg width="150" height="150" viewBox="0 0 150 150" fill="none" xmlns="http://www.w3.org/2000/svg">
<path d="M127.125 73.6607L118.286 76.3929L118.232 76.6607C117.643 82.3393 115.339 87.75 111.536 92.1964L111.375 92.3572L113.625 98.9464L106.714 96.75L106.554 96.8572C101.839 100.446 96.1607 102.643 90.1607 103.179L89.8929 103.232L87 112.393L84.1072 103.232C84.1072 103.232 81.75 103.071 77.1965 101.036C72.9643 99.1607 67.125 95.5179 63.75 92.0357C63.5357 92.3036 63.2679 92.5714 63 92.8929C62.6786 93.2143 62.25 93.6429 61.6607 94.1786C61.6072 94.2322 61.5536 94.2322 61.5536 94.2857C55.875 99.2679 46.3393 102.804 35.9465 102.804C27.375 102.804 19.6072 100.607 13.9822 97.0714L20.8929 84.9643L22.2322 82.6072C22.2322 82.6072 27.1607 88.5536 36.1072 89.3036C40.7679 89.6786 44.25 87.5893 45.4286 84.2143C46.8215 80.1964 44.5715 73.8214 34.0715 73.8214C28.4465 73.8214 25.9286 75.1072 25.7679 75.1607L41.625 56.7322H35.9465C28.9822 56.7322 25.1786 57.3214 21.3215 58.9286L17.1429 60.6429L22.9822 44.0893H67.2857L58.2858 56.625H62.0358C64.8215 52.5 68.5715 49.7679 68.7322 49.6607C69.1072 49.3929 69.4822 49.125 69.8572 48.8572C74.0893 46.2322 78.9107 44.5714 83.9465 44.0893H84.2143L87.1072 35.6786L90 44.0893H90.2679C96.2679 44.6786 101.946 46.875 106.714 50.4643L106.875 50.5714L113.839 48.3214L111.429 54.9643L111.589 55.125C115.339 59.625 117.696 64.9822 118.286 70.6607L118.339 70.9286L127.125 73.6607Z" fill="#0B0503"/>
<path d="M125.839 83.0892L150 73.6607L125.839 64.2321C124.821 60.375 123.214 56.7321 121.018 53.3571L126.482 35.9999L108.321 41.1428C104.679 38.9464 100.661 37.3392 96.4286 36.3214L87.0536 14.4642L77.9464 35.7857H17.0357L3.69643 73.3928L19.875 69.1607L0 100.232C13.7143 110.089 26.1429 112.071 36 112.071C45.8571 112.071 55.3393 109.714 62.5714 105.214C63.1071 104.893 63.6429 104.518 64.125 104.196C68.3571 107.25 72.4286 109.821 77.625 111L87 135.214L96.375 111C100.554 110.036 104.518 108.429 108.161 106.232L126.375 111.429L120.911 94.0178C123.214 90.6428 124.821 86.9464 125.839 83.0892ZM118.232 76.6607C117.643 82.3392 115.339 87.75 111.536 92.1964L111.375 92.3571L113.625 98.9464L106.714 96.75L106.554 96.8571C101.839 100.446 96.1607 102.643 90.1607 103.179H89.8929L87.0536 112.339L84.1607 103.179C84.1607 103.179 81.8036 103.018 77.25 100.982C73.0179 99.1071 67.1786 95.4642 63.8036 91.9821C63.5893 92.25 63.3214 92.5178 63.0536 92.8392C62.7321 93.1607 62.3036 93.5892 61.7143 94.125C61.6607 94.1785 61.6071 94.2321 61.6071 94.2321C55.9286 99.2142 46.3929 102.75 36 102.75C27.4286 102.75 19.6607 100.554 14.0357 97.0178L20.8929 84.9642L22.2321 82.6071C22.2321 82.6071 27.1607 88.5535 36.1071 89.3035C40.7679 89.6785 44.25 87.5892 45.4286 84.2142C46.8214 80.1964 44.5714 73.8214 34.0714 73.8214C28.4464 73.8214 25.9286 75.1071 25.7679 75.1607L41.625 56.7321H35.9464C28.9821 56.7321 25.1786 57.3214 21.3214 58.9285L17.1429 60.6428L22.9821 44.0892H67.2857L58.2857 56.6249H62.0357C64.8214 52.4999 68.5714 49.7678 68.7321 49.6607C69.1071 49.3928 69.4821 49.1249 69.8571 48.8571C74.0893 46.2321 78.9107 44.5714 83.9464 44.0892H84.2143L87.1071 35.6785L89.9464 44.0892H90.2143C96.2143 44.6785 101.893 46.8749 106.661 50.4642L106.821 50.5714L113.786 48.3214L111.429 54.9642L111.589 55.125C115.339 59.625 117.696 64.9821 118.286 70.6607V70.9285L127.125 73.6607L118.286 76.3928L118.232 76.6607Z" fill="#A17D23"/>
<path d="M86.2501 82.3928C86.2501 82.7678 86.4643 82.8214 86.4643 83.0893V85.0178H86.4108C86.3036 85.0714 86.2501 85.125 86.2501 85.125V85.1785C86.2501 85.1785 86.2501 85.2321 86.2501 85.2857V85.3393H83.1429V85.2857C83.0894 85.2321 83.0358 85.1785 83.0358 85.0714L82.0179 84.9643C81.8036 85.1785 81.4822 85.3928 81.2144 85.5C80.4108 85.5 79.9822 85.5535 79.5536 85.5535C79.3394 85.6071 78.8036 85.9285 78.3215 85.9285H78.2679C78.1072 85.7678 78.0536 85.5535 78.0536 85.3928C78.0536 85.2321 78.1072 85.125 78.1072 85.0178V84.2143H78.1608C78.2679 84.1607 78.3215 84.1071 78.3751 84.0535C78.4286 84 78.4286 83.8928 78.4286 83.8393C78.4286 83.625 78.3751 83.4107 78.3751 83.4107V83.3571L78.4286 83.3035C78.6429 83.1428 78.7501 83.1428 78.8036 82.9285C78.8572 82.875 78.8572 82.7678 78.8572 82.6607C78.8572 82.4464 78.8036 82.2321 78.8036 82.2321V82.1785L78.8572 82.125C78.9644 82.0714 79.0179 82.0178 79.0715 81.9643C79.1251 81.9107 79.1251 81.8571 79.1251 81.75C79.1251 81.5893 79.0715 81.375 79.0715 81.375C79.0715 81.2678 79.2322 81.0535 79.2858 80.8393C79.3394 80.6785 79.3394 80.4107 79.3394 80.1964C79.3394 79.7678 79.2858 79.3393 79.2858 79.3393C79.2858 79.125 79.1786 79.0714 79.0715 78.8571C78.9108 78.4285 78.8572 77.8928 78.8572 77.3571C78.8572 76.3393 79.0715 75.3214 79.0715 75.3214L80.3036 72C80.3036 71.9464 80.1965 71.9464 80.0894 71.7857C80.0894 71.7321 80.0894 71.6785 80.0894 71.6785C80.0894 71.625 80.0894 71.5714 80.0894 71.4643V71.4107C80.0894 71.4107 80.3572 71.0893 80.3572 70.8214C80.3572 70.7143 80.3572 70.6607 80.3572 70.6071C80.3572 70.5535 80.3572 70.5535 80.3572 70.5C80.4108 70.2321 80.8929 69.6428 81.0001 69.0535C81.0001 69 81.0001 68.8928 81.0001 68.7857C81.0001 68.625 81.0001 68.4643 81.0001 68.4107C81.0001 68.1964 81.8572 66.2678 82.4465 65.6785V64.9285H82.5001C82.5536 64.9285 82.6608 64.7678 82.6608 64.7143C82.6608 64.6607 82.6608 64.7143 82.5536 64.5535H81.4286V64.5C81.3751 64.3928 81.3751 64.3393 81.2679 64.2857C81.2144 64.2321 81.0536 64.1785 80.9465 64.1785C80.6786 64.1785 80.3572 64.2857 80.2501 64.3393C80.1965 64.3393 80.0358 64.4464 79.9286 64.7678C79.7679 65.0893 79.6608 65.5178 79.5536 66.1071C79.3394 67.3393 79.1786 67.5 78.9108 67.5C78.8572 67.5 78.8572 67.5 78.8036 67.5C78.6965 67.5 78.6429 67.5 78.5358 67.6607L78.4822 67.7678L78.4286 67.7143C78.3215 67.6071 78.2143 67.5 78.1608 67.5L78.1072 67.4464V67.3928C78.1608 67.1785 78.2144 67.0178 78.2144 66.9107C78.2144 66.6964 78.1072 66.5893 78.1072 66.3214C78.1072 66.1071 78.3215 65.9464 78.4286 65.8393V62.1428H78.4822C78.5358 62.1428 78.6965 62.1428 79.1251 62.1428C79.9286 62.1428 81.6965 62.1428 85.5001 62.1428H85.5536V62.1964C85.6608 62.4107 85.6608 62.4107 85.7144 62.4107C85.7144 62.4107 85.7679 62.4107 85.8215 62.4107H85.8751H85.9286V62.6785C85.7679 62.8928 85.6608 63.6428 85.0715 64.2321C85.0715 64.2857 85.0715 64.4464 85.0715 64.6071C85.0715 64.7143 85.0715 64.8214 85.0179 64.9285C84.9108 65.3035 84.8036 65.4107 84.3751 65.7857C84.3751 65.8393 84.4286 66 84.4286 66.1607C84.4286 66.2678 84.4286 66.375 84.3751 66.4821C84.2144 66.8571 84.0001 66.6964 83.9465 67.0714C83.9465 67.0714 83.8394 67.875 83.7322 68.3571C83.6251 68.8393 83.3572 69.1607 83.3572 69.5357C83.3572 69.5893 83.3572 69.6428 83.3572 69.75L83.3036 71.7857H83.2501C82.9286 71.9464 82.9822 73.125 82.4465 73.7143V74.4107C82.2858 74.8393 81.9644 74.8393 81.8036 75.375V77.6785L81.1608 79.4464C81.1608 79.5 81.1608 79.7678 81.1608 80.0357C81.1608 80.1964 81.1608 80.3571 81.1072 80.5178C81.0001 81.1071 80.6251 81.8035 80.4644 82.125C80.4108 82.1785 80.4108 82.2321 80.3572 82.2857V82.3393C80.3572 82.5535 80.1965 82.9285 80.1429 83.0357C80.1429 83.1964 80.0358 83.4107 79.9286 83.5178C79.9822 83.5714 80.0358 83.625 80.0894 83.625C80.0894 83.625 80.1429 83.5714 80.2501 83.4643L80.3036 83.4107L80.3572 83.4643C80.4644 83.5178 80.6251 83.5178 80.7322 83.5178C80.9465 83.5178 81.2144 83.4107 81.5358 83.4107C81.6429 83.4107 81.6429 83.3571 81.6429 83.1964C81.6429 83.0357 81.6965 82.8214 81.8572 82.6607C82.1786 82.3393 82.8751 82.2857 83.0358 82.125C83.8929 81.5357 84.2144 81.8035 84.8036 80.8928L84.8572 80.7857L84.9108 80.8393C84.9644 80.8928 85.0179 80.9464 85.1251 81.0535H86.1965V81.1071C86.3036 81.2678 86.5179 81.4285 86.5179 81.6964C86.4108 81.9643 86.2501 81.9107 86.2501 82.3928ZM91.5001 78.2143C91.5001 79.3393 91.5001 80.4643 91.3929 80.7321V80.7857C91.2858 80.8393 91.1251 81.3214 90.9644 81.8035C90.8036 82.2857 90.6429 82.8214 90.3751 83.0893V84.2678H90.3215C90.1072 84.4285 90.0536 85.3393 89.7322 85.7143V86.4643H89.6786C89.6251 86.5178 89.5715 86.5714 89.5179 86.625V87.5893H89.4644C89.3036 87.6964 89.3036 87.8035 89.0894 87.8035C89.0358 87.8035 88.9822 87.75 88.9822 87.75C88.9822 87.75 88.9286 87.75 88.8751 87.8035L88.7679 87.8571V86.5714L88.1251 84.5357V83.8928C88.1786 83.4107 87.1072 83.0893 87.1072 82.0714V82.0178C87.1072 82.0178 88.3929 80.6785 88.4465 78.8035C88.5001 78.6964 87.9108 78.2678 87.3215 77.9464C86.7322 77.625 86.1429 77.3571 85.9822 77.1428H85.6072L85.7679 77.6785V78.8035C86.0358 78.8571 86.1965 79.2321 86.4108 79.2321C86.4644 79.2321 86.5179 79.2857 86.5179 79.3393C86.4644 79.5 86.2501 79.6607 86.1965 79.9285V79.9821H86.1429C86.1429 79.9821 85.5001 79.9285 84.9644 79.9285C84.6965 79.9285 84.4822 79.9285 84.3751 79.9821C83.4108 80.3035 82.2858 80.7321 82.2858 80.7321H82.2322L82.1786 80.6785C81.9108 80.25 82.1251 80.3571 81.9108 79.9821L81.8572 79.9285L81.9108 79.875C82.2858 79.3393 82.3929 79.2857 82.6608 79.0178C82.6608 78.9107 82.7144 78.4285 82.8751 78.1607C83.0894 77.8393 83.5715 77.7321 83.5179 77.625C83.5179 77.625 83.4644 77.5714 83.3572 77.4643L83.3036 77.4107V77.3571C83.3036 77.3571 83.3572 76.7143 83.4644 76.3393C83.4644 76.2321 83.5179 76.1785 83.5179 76.125C83.4643 76.0178 83.4108 75.8035 83.4108 75.5357C83.4108 75.375 83.4643 75.2143 83.5179 75.1071C83.5715 75.0535 83.6251 75 83.7322 74.9464V74.0357H83.7858C83.9465 73.9285 83.9465 73.9285 83.9465 73.7678C83.9465 73.7143 83.9465 73.7143 83.8929 73.7143C83.8394 73.7143 83.7322 73.6071 83.7322 73.4464C83.7322 73.3928 83.7322 73.3393 83.7322 73.2857C83.7322 73.1785 83.7858 73.0714 83.7858 72.9643C83.7858 72.75 83.7322 72.6428 83.7322 72.4285C83.7322 72.3214 83.7322 72.2678 83.7858 72.1607C83.8929 71.8393 84.0536 71.7321 84.1608 71.4643C84.1608 71.4643 84.3751 70.9821 84.3751 70.2857V70.2321H84.4286C84.9108 69.9643 84.6429 68.9464 84.9644 68.0893C85.1251 67.7143 85.2858 67.3393 85.5536 67.0714V67.0178C85.5536 66.8571 85.5001 66.75 85.5001 66.5893C85.5001 66.5357 85.5001 66.4285 85.6072 66.375C85.6608 66.2678 85.7679 66.2678 85.8215 66.2143C85.8751 66.0535 86.0358 65.4643 86.2501 65.0357C86.3572 64.8214 86.3572 64.6607 86.6786 64.4464V63.5357H86.7322C86.8393 63.4285 86.8393 63.4285 86.8929 63.375C86.9465 63.3214 87.0001 63.2143 87.1608 63.1071C87.3751 63.1071 87.3751 62.8928 87.3751 62.625C87.3751 62.5714 87.3751 62.4643 87.3751 62.4107C87.3751 62.1428 87.4286 61.7678 87.8036 61.7678C88.5001 61.8214 88.3929 62.9464 88.5001 63.0535C89.0358 64.2857 89.1965 64.0714 89.2501 64.3928V65.0357C89.2501 65.5714 90.0001 67.5 90.0001 67.5L90.6429 70.0714C90.6965 70.125 90.7501 70.1785 90.8036 70.2321H90.8572V71.1428C91.0179 71.3035 91.0715 71.4107 91.0715 71.5178C91.0715 71.625 91.0179 71.6785 91.0715 71.6785C91.0715 71.7321 91.0715 71.7857 91.2322 71.8928H91.2858V73.125H91.2322V73.1785C91.2322 73.6071 91.4465 75.2143 91.5001 75.4285V75.4821C91.5001 75.9643 91.5001 77.0893 91.5001 78.2143ZM86.3036 75.1071C86.3036 75.2678 86.3036 75.375 86.2501 75.4821V75.5357C86.3572 75.5357 86.5179 75.5357 86.6251 75.5357C86.8393 75.5357 87.0001 75.5357 87.2144 75.5893C87.8036 75.6964 88.1786 76.125 88.5536 76.2857C88.6072 76.2857 88.6608 76.2857 88.6608 76.2857H88.7144C88.7144 76.0178 88.7679 74.9464 88.7679 74.0893C88.7679 73.6071 88.7679 73.2321 88.7144 73.0714C88.6072 72.9107 88.6072 72.6428 88.5536 72.3214C88.5001 72 88.4465 71.625 88.3393 71.5178C88.0715 71.3035 87.7501 71.4107 87.4822 71.0893C87.3215 70.9285 87.2144 70.6071 87.1072 70.3928L87.0536 71.3035V71.3571H87.0001C86.8393 71.4643 86.8394 71.625 86.7858 71.7857C86.7322 71.9464 86.6251 72.1071 86.4108 72.1607C86.4108 72.4285 86.3572 73.2321 86.1965 73.5C86.1965 73.5535 86.1965 73.6607 86.1965 73.8214C86.2501 74.1964 86.3036 74.7321 86.3036 75.1071ZM77.7322 78.8035H77.6251C77.3036 78.8571 77.4644 79.125 77.1965 79.3928C77.1429 79.4464 77.1429 79.875 77.1429 80.3035C77.1429 81.2143 77.1965 82.5 77.1965 82.5V82.6071H77.1429C77.0358 82.6071 76.5001 82.8214 76.3929 83.0357V83.0893H74.0358V83.0357C73.9286 82.8214 73.8751 82.8214 73.8751 82.8214C73.8215 82.8214 73.7679 82.8214 73.6072 82.8214C73.3394 82.8214 73.2858 82.9285 73.2322 83.0357C73.1786 83.1428 73.0715 83.3035 72.8572 83.3035C72.8572 83.3035 72.3751 83.1964 72.1608 82.9821H70.5536V82.9285C70.4465 82.7143 70.3394 82.7678 70.3394 82.5535C70.3394 82.4464 70.3929 82.4464 70.5001 82.3393C70.5536 82.2857 70.6072 82.2321 70.6608 82.1785V80.8393H70.7144C70.9286 80.6785 70.8751 80.7321 70.8751 80.6785C70.8751 80.625 70.8751 80.5714 70.8751 80.5178C70.8751 80.5178 70.8751 80.4643 70.8215 80.4107C70.8215 80.3571 70.7679 80.25 70.7144 80.1964C70.6072 80.0357 70.5001 79.8214 70.5001 79.8214L70.4465 79.7678L70.5001 79.7143C70.6072 79.5535 70.6072 79.4464 70.6072 79.3393C70.6072 79.125 70.5001 78.9643 70.5001 78.9643C70.5001 78.8571 70.5001 78.75 70.5001 78.6428C70.5001 78 70.7144 77.1964 70.7144 76.8214V76.7678V76.7143H70.7679C70.9822 76.6071 70.9286 75.9107 71.1429 75.375C71.3572 74.9464 71.8929 74.3571 71.8929 74.3571C71.9465 74.25 71.8929 73.6071 72.7501 72.5893C72.8036 72.375 73.1786 70.5 73.5536 69.9643C73.6072 69.9107 73.7144 69.8571 73.8215 69.75C73.9286 69.6964 73.9822 69.5893 74.0358 69.5893C74.0358 69.4821 74.1965 69.1071 74.8929 68.5178C74.8394 68.4107 74.7858 68.0893 74.7858 67.7678C74.7858 67.5535 74.8394 67.3393 74.8929 67.125C75.3215 66.8035 75.5894 66.0535 76.3394 65.4107V64.0178H74.0358C73.7144 64.3393 72.8036 64.3928 72.8036 65.5714V65.625H72.6965C72.6429 65.625 72.4286 65.6785 72.2679 65.7857C72.1072 65.8928 71.9465 66.0535 71.9465 66.1607V67.8214C71.9465 67.9821 71.8394 68.1428 71.5179 68.625L71.4644 68.7321L71.2501 68.5714C71.0894 68.4107 71.0358 68.3035 71.0358 68.1964C71.0358 68.1428 71.0358 68.0357 71.0358 68.0357C71.0358 67.9821 71.0358 67.9285 70.8751 67.8214H70.8215V67.7678C70.8215 67.7678 70.7679 67.3393 70.7144 67.0714C70.7144 66.9107 70.6608 66.75 70.6608 66.75L70.6072 66.6964V66.6428C70.6072 66.6428 70.8215 66.1071 70.8215 65.6785C70.8215 65.4643 70.7679 65.25 70.6608 65.0893C70.6072 65.0357 70.5536 64.9821 70.4465 64.9285H70.3929V62.9464C70.3929 62.9464 70.6072 62.6785 70.6072 62.4643V62.4107V62.3035H70.7144C73.6608 62.3035 73.9286 62.3035 76.7679 62.3035H76.8215V63.4285C76.8215 63.5893 77.0358 63.6428 77.0358 63.9107V67.7143H76.9822C76.7679 67.875 76.7144 68.1428 76.7144 68.4107C76.7144 68.7321 76.7679 68.9464 76.7679 68.9464V69L76.7144 69.0535C76.1251 69.4821 75.8036 71.1428 75.4286 71.5714V72.5357H75.3751C75.3751 72.5357 74.5179 72.9107 74.3572 73.3393C74.3036 73.4464 74.3036 73.5535 74.3036 73.7143C74.3036 73.9821 74.3572 74.25 74.3572 74.25V74.3035H74.3036C73.6072 74.5714 72.5358 77.625 72.5358 77.8393V78.375H72.4286L72.4822 78.4285C72.4822 78.4285 72.4822 78.4821 72.4286 78.4821C72.3751 78.5357 72.3751 78.6428 72.3215 78.8035C72.2144 79.0714 72.1072 79.3928 71.9465 79.7678C71.6786 80.4643 71.4644 81.1607 71.3036 81.375C71.4108 81.5357 71.4108 81.5357 71.4108 81.5357C71.4108 81.5357 71.5179 81.5357 71.5715 81.5357C71.7322 81.5357 71.8394 81.4285 72.6429 81.0535C72.8036 81 73.0179 81.1071 73.6072 80.8393C73.7143 80.8393 73.9286 80.3571 74.2501 79.9285C74.5179 79.5 74.9465 79.0714 75.4286 79.0714C75.4822 78.8571 75.5894 78.4285 75.8036 78.2143L75.8572 78.1607L75.9108 78.2678C75.9644 78.3214 75.9643 78.375 76.0179 78.4285C76.6608 78.1071 76.3929 77.7857 76.7144 77.3571V77.3035H77.3036V77.4107C77.3036 77.4107 77.3036 77.5178 77.3036 77.625C77.3036 77.8928 77.3036 78.375 77.4108 78.5893L77.7322 78.8035ZM60.0001 80.1964C60.0001 80.4643 60.1608 80.9464 60.1608 81.4285C60.1608 81.5357 60.1608 81.6428 60.1608 81.75C60.1072 82.1785 59.7858 82.7678 59.7858 82.7678C59.7858 82.7678 59.3572 83.4107 59.1965 83.8393C58.9822 84.375 58.9286 85.2857 58.9286 85.2857V85.3393H58.8751C58.8751 85.3393 58.0179 85.7143 57.5358 86.0893C57.1072 86.4107 56.6786 86.6785 56.5715 86.9464V87H56.5179C56.5179 87 55.5001 87.1607 55.1786 87.2678C55.1251 87.2678 55.1251 87.2678 55.1251 87.2678C55.0715 87.3214 55.0179 87.375 54.9108 87.375C54.6965 87.3214 54.6429 87.0535 54.4822 87.0535C54.4286 87.0535 54.3215 87.1071 54.1608 87.2143C54.0536 87.4285 53.7322 87.4285 53.4108 87.4285C52.8751 87.4285 52.2858 87.3214 52.1251 87.3214C52.0715 87.375 51.9644 87.375 51.8572 87.375C51.6429 87.375 51.3215 87.3214 51.1608 87.3214C51.1072 87.3214 51.1072 87.3214 51.1072 87.3214L51.0536 87.375L51.0001 87.3214C50.8929 87.2143 50.7858 87.1071 50.7322 87.1071L50.6251 87L50.7858 86.9464C50.7858 86.9464 51.2679 86.7321 51.4286 86.625C51.4286 86.625 51.4286 86.625 51.4286 86.5714C51.4286 86.5178 51.4822 86.4643 51.4822 86.4107C51.5358 86.3035 51.5894 86.1428 51.6429 85.9285C51.7501 85.5535 51.8572 85.0714 51.9108 84.75C51.9108 83.5178 51.9644 82.9285 51.9644 82.2857C51.9644 81.9643 51.9644 81.6428 51.9108 81.2143C51.9108 81.0535 51.8036 79.9285 51.7501 79.125C51.7501 77.7857 51.8036 76.4464 51.8036 75.6964C51.8036 75.5357 51.8036 75.4285 51.8036 75.3214V75.2678H51.8572C52.0179 75.2678 52.0715 75.1071 52.1251 75.1071L52.0715 74.0893L51.9108 73.7678V72.2678C51.9644 72.0535 52.1251 71.8393 52.1251 71.8393C52.1251 71.8393 52.1786 71.6785 52.1786 71.5178C52.1786 71.3035 52.1786 71.0893 52.1786 71.0357L51.9644 70.6607V65.3571H52.0179C52.2322 65.1964 52.2322 65.1964 52.2322 65.1964C52.2322 65.1428 52.2322 65.0893 52.2322 64.9285C52.2322 64.7678 52.2322 64.7143 52.2322 64.6607C52.2322 64.6607 52.1786 64.6071 52.1251 64.5535C52.0715 64.5535 52.0179 64.5535 51.9644 64.5535L51.9108 64.6071C51.8572 64.6071 51.8572 64.6071 51.8036 64.5535H51.7501C51.7501 64.5535 51.6965 64.5535 51.6965 64.5C51.6965 64.4464 51.6965 64.4464 51.7501 64.4464C51.4822 64.3393 51.4286 64.2857 51.4286 64.2857L50.7322 63.6428C50.6251 63.4821 50.5715 63.4821 50.5715 63.4285C50.5715 63.4285 50.4644 63.3214 50.5179 63.2678C50.5179 63.2143 50.5179 63.1607 50.5179 63.0535C50.5179 62.8393 50.5179 62.7857 50.5715 62.7321C50.6251 62.6785 50.6251 62.6785 50.7322 62.5178V62.4643H51.8572C52.0179 62.3571 52.3394 62.3035 52.6608 62.25C53.0358 62.1964 53.4644 62.1964 53.5715 62.1964L54.6429 62.25C55.7679 62.25 56.1429 62.1428 56.7322 62.1428C57.0001 62.1428 57.2679 62.1428 57.6965 62.25H57.7501V62.3035C57.8572 62.625 58.1251 62.7857 58.2858 62.8928C58.3394 62.8928 58.3394 62.8928 58.3929 62.8928C58.5536 62.8928 58.7144 62.8928 58.9286 63.0535C59.6251 63.5357 60.0001 64.6607 60.0001 65.25C60.0001 65.8393 60.1608 66.4285 60.1608 66.8571C60.1608 67.125 60.1072 67.3393 59.9465 67.5L59.1965 68.9464C58.9286 69.4821 58.2322 70.3393 57.9644 70.6071C57.9644 70.6607 58.0715 70.7143 58.1786 70.8214C58.3394 70.9285 58.6072 71.0357 58.8751 71.0357C59.0358 71.0893 59.1429 71.1964 59.1429 71.3571C59.1429 71.625 58.9286 71.9464 58.9286 71.9464C58.9286 71.9464 58.9286 71.9464 58.9286 72C58.9286 72.0535 58.9286 72.1071 58.9822 72.2143C59.0358 72.2678 59.0358 72.3214 59.0358 72.2678C59.0358 72.2678 59.0358 72.2678 59.0894 72.2143L59.1429 72.1071L59.1965 72.1607C59.5179 72.4821 59.5715 72.5357 59.5715 72.6428C59.5715 72.6964 59.5179 72.6428 59.7858 72.8035L59.8394 72.8571V72.9107C59.8394 72.9107 59.6786 73.6071 59.6786 74.3035C59.6786 74.6785 59.7322 75 59.8394 75.3214C59.8929 75.4821 60.2679 75.5893 60.2679 75.8571C60.2679 75.9107 60.2679 75.9643 60.2144 76.0178C60.2144 76.0714 60.2144 76.2857 60.2144 76.5C60.2144 76.6607 60.2144 76.7678 60.2144 76.875C60.2144 76.9285 60.2144 76.9285 60.2144 76.9821C60.2144 77.625 60.3215 78.2678 60.3215 78.8571C60.3215 79.2857 60.2679 79.7143 59.9465 80.0893C60.0536 80.0893 60.0001 80.1428 60.0001 80.1964ZM57.1608 65.8928C57.1608 65.8928 57.1608 65.8393 57.2144 65.7857L57.5358 65.5714C57.2144 65.4643 56.8929 65.6785 56.6251 65.0893H56.5179L55.6072 65.1964L55.6608 65.0893V65.0357C55.6608 65.0357 55.6072 65.0357 55.6072 65.0893C55.5536 65.25 55.5536 65.3035 55.5536 65.3571C55.5536 65.4643 55.5001 65.5178 55.3394 65.625V69.5893C55.4465 69.5893 55.5001 69.5357 55.5536 69.5357C55.6608 69.5357 55.7679 69.5893 55.7679 69.5893C56.1965 69.4821 55.9822 68.4643 57.1608 68.3035C57.1608 68.1964 57.1608 68.0357 57.1608 67.8214C57.1608 67.3393 57.1608 66.8035 57.3751 66.5357C57.3215 66.4821 57.1608 66.0535 57.1608 65.8928ZM57.3215 80.0357C57.3215 79.875 57.3751 79.7678 57.3751 79.6607C57.3751 79.6071 57.3751 79.5535 57.2679 79.5L57.1608 79.4464L57.2679 79.3928C57.3215 79.3393 57.3215 79.2857 57.3215 79.2321C57.3215 78.9643 57.0536 78.5357 57.0536 78.1607C57.0536 78 57.1072 77.7857 57.3215 77.625C57.3215 77.1428 57.2679 77.0893 57.1608 76.9821C57.0536 76.875 56.9465 76.7678 56.9465 76.3393C56.9465 76.125 57.1608 75.6964 57.1608 75.4821C57.1608 75.375 57.1608 75.375 57.1072 75.3214L57.0536 75.2678L57.1072 75.2143C57.1608 75.1607 57.1608 75.0535 57.1608 75C57.1608 74.7321 56.9465 74.5178 56.9465 74.5178L56.8394 74.4107H57.0001H57.0536C57.0536 74.3571 56.8929 74.1964 56.8929 74.0357C56.8929 73.9821 56.8929 73.9285 56.9465 73.9285L57.0001 73.875C57.0001 73.7143 56.6786 73.3928 56.6786 73.3928C56.3036 73.1785 55.8215 72.75 55.8215 72.75L55.2858 72.2143C55.2858 72.4821 55.2858 72.9643 55.2858 73.4464C55.2858 73.7678 55.2858 74.0893 55.2858 74.25C55.2322 74.3571 55.1786 74.5178 55.1786 74.7321C55.1786 75.1607 55.2858 75.6964 55.2858 75.6964L55.0715 76.7678H55.0179C54.9108 76.8214 54.8572 76.875 54.8572 76.9821C54.8572 77.0893 54.9108 77.1428 55.0179 77.1964H55.0715V81.1071C54.9644 81.2143 54.9108 81.2678 54.8572 81.3214C54.8572 81.375 54.8572 81.4285 54.8036 81.4821C54.8036 81.4821 54.8036 81.5357 54.7501 81.5357C54.7501 81.75 54.7501 82.1785 54.7501 83.1964C54.7501 83.1964 54.7501 83.7321 54.8036 83.9464V84C54.8036 84.1071 54.6965 84.2678 54.5894 84.4821C54.5358 84.5893 54.4822 84.6964 54.4286 84.75C54.5894 84.75 54.8572 84.6964 54.9644 84.6428L55.4465 84.2143H55.5001C55.8751 84.2143 56.3036 83.4643 56.5715 83.25C56.8929 82.9821 56.7322 82.1785 56.8394 81.4821V81.4285C56.8394 81.4285 56.8394 81.4285 56.8394 81.375C56.8394 81.3214 56.8929 81.2678 56.8929 81.2143C56.9465 81.1071 57.0001 80.9464 57.0001 80.7857C57.1072 80.4643 57.1608 80.0893 57.1608 79.9821C57.3751 80.0893 57.3215 80.0357 57.3215 80.0357ZM100.179 83.5714C100.232 83.625 100.232 83.7321 100.232 83.8928C100.232 84 100.232 84.1071 100.125 84.2678C100.018 84.5357 100.071 84.5893 99.5893 87V87.1071H99.4822C99.4822 87.1071 98.7322 86.8928 98.5179 86.6785C97.3929 85.6071 97.1251 85.5535 96.6429 85.5535C96.5358 85.5535 96.4286 85.5535 96.3215 85.5535H96.2679V85.5V85.4464C96.2679 85.0714 96.9108 83.6785 97.0179 83.0893C97.0715 82.8214 97.1251 81.8035 97.1251 81.0535C97.1251 80.7321 97.1251 80.4643 97.1251 80.3571C97.1251 80.25 97.0179 79.3393 96.8036 78.4821C96.5893 77.625 96.2679 76.7678 96.0536 76.7678H96.0001V76.7143C96.0536 76.2321 96.2144 75.5357 96.2144 75.2678C96.2144 75.2143 96.2144 75.2143 96.2144 75.2143C95.8929 74.625 95.3036 73.5 94.9286 73.3393C94.9286 73.4464 94.9286 73.5535 94.9286 73.6071C94.9286 73.8214 94.8751 73.9821 94.6608 74.4107C94.5536 74.5714 94.4465 74.7321 94.4465 74.8928C94.4465 74.8928 94.4465 74.8928 94.4465 74.9464C94.4465 75.4821 94.9822 79.8214 94.9822 80.25V80.3035H94.9286L94.8751 80.3571C94.8215 80.4107 94.8215 80.4643 94.8215 80.5178C94.8215 80.5714 94.9822 80.6785 94.9822 80.8928C94.9822 81.1607 95.0358 81.4285 95.0358 81.75C95.0358 82.1785 94.9822 82.6607 94.8751 82.9821C94.8751 83.4643 95.0894 84.5893 95.0894 85.125C95.0894 85.1785 95.0894 85.2857 95.0894 85.3393C95.0358 85.4464 94.9822 85.4464 94.9286 85.5C94.9286 85.6071 94.9822 85.7143 94.9822 85.9285C94.9822 86.1964 94.9286 86.625 94.7679 87.2678L94.7144 87.5357L94.6072 87.2678C94.1251 86.0357 93.4286 85.2857 92.8394 84.8035C92.2501 84.3214 91.7679 84.1607 91.7143 83.8393C91.7143 83.8393 92.4643 81.2678 92.7858 80.9464C92.7858 80.8928 92.8394 80.7857 92.8394 80.625C92.8394 80.4107 92.7858 80.1964 92.7858 80.0357C92.7322 79.9821 92.6786 79.9285 92.6251 79.875H92.5715V79.8214C92.5715 79.7678 92.5715 79.125 92.5715 78.2678C92.5715 76.6607 92.5715 74.3035 92.5715 74.0893C92.5179 73.9285 92.5179 73.7143 92.5179 73.6607H92.4644L92.3572 72.75C92.2501 72.6428 92.1965 72.375 92.1965 72.375H92.1429V72.3214C92.1429 72.3214 92.1429 72.1071 92.1429 71.8928C92.1429 71.7857 92.1429 71.6785 92.1429 71.625C92.0894 71.5714 92.0893 71.4643 92.0893 71.3571C92.0893 71.25 92.0358 71.0893 92.0358 71.0357H91.9822V70.9821C91.9822 70.9821 91.9822 70.9821 91.9822 70.9285C91.9822 70.8214 91.9822 70.5 91.8751 70.3393C91.7679 70.2321 91.8215 70.0714 91.7679 69.8571C91.7679 69.6964 91.7679 69.4821 91.7143 69.4285V68.3571C91.5536 68.1964 91.5001 68.0893 91.5001 67.9821C91.5001 67.9285 91.5001 67.9285 91.5001 67.9285C91.5001 67.9285 91.5001 67.875 91.3394 67.7678H91.2858V67.7143C91.2322 67.4464 91.2322 67.125 91.2322 66.75C91.2322 66.375 91.2322 66.0535 91.2858 65.7857C91.6072 65.4643 92.5715 64.9821 93.2144 64.0714C93.0536 64.0178 92.6251 63.9107 92.5179 63.9107C92.5179 63.9107 92.5179 63.9107 92.4644 63.9643C92.4108 64.0178 92.4108 64.0714 92.3036 64.0714C92.2501 64.0714 92.1965 64.125 92.0893 64.125C92.0358 64.125 91.9822 64.125 91.8751 64.0714H91.8215V64.0178C91.8215 63.6964 91.4465 63.2678 91.0715 62.9464C90.6965 62.625 90.3751 62.4107 90.2679 62.3571L89.5179 62.1964V62.0357L92.5179 61.9285C92.7858 61.8214 92.8393 61.7678 93.0536 61.7678C93.2679 61.7678 93.3215 61.8214 93.4286 61.9821H94.5001H94.5536C94.6072 61.9821 94.6608 62.0357 94.7679 62.0357C94.9286 62.0893 95.1429 62.1428 95.3572 62.1964C95.7858 62.3035 96.1608 62.4643 96.1608 62.4643C96.2144 62.4643 96.2679 62.4643 96.3751 62.4643C96.4286 62.4643 96.5358 62.4643 96.6429 62.4643C97.0179 62.5178 97.3393 62.7321 97.6072 62.9464C97.8751 63.1607 98.0894 63.375 98.0894 63.3214H98.1429L99.2143 65.5714C99.2679 65.6785 99.2679 65.8393 99.2679 66.0535C99.2679 66.4285 99.2143 66.9107 99.2143 66.9107V66.9643H99.1608C99.1608 66.9643 99.1072 67.0714 99.1072 67.1785C99.0536 67.2857 99.0536 67.3393 99.0001 67.4464C99.0001 67.5535 99.0001 67.7143 99.0001 67.8214C99.0001 68.0893 99.0001 68.3035 99.0001 68.3571C98.6251 69.9107 97.8751 71.0893 96.5894 71.1428C96.5894 71.3035 96.5894 71.4643 96.5894 71.5178C96.5894 71.6785 96.5358 71.7321 96.4822 71.7857H96.5358C96.6965 71.7857 96.8036 71.7321 97.0179 71.7321C97.2858 71.7321 97.5536 71.8928 97.9822 72.4285C98.3036 72.5893 98.1965 72.9107 98.2501 73.0714C98.2501 73.125 98.2501 73.125 98.3036 73.125C98.4643 73.1785 98.5715 73.2321 98.6251 73.2321C98.6786 73.2857 98.7322 73.3393 98.7322 73.3928C98.7322 73.4464 98.7322 73.4464 98.7322 73.4464C98.7322 73.5 98.7322 73.5535 98.7858 73.6607C98.8393 73.8214 98.8929 74.3035 98.9465 74.3571C99.0536 74.5178 99.0536 75 99.0536 75.4821C99.0536 75.9643 99.1072 76.5 99.1608 76.5C99.2144 76.5535 99.2143 76.6071 99.2143 76.6607C99.2143 76.7143 99.2144 76.8214 99.2679 76.875C99.3215 77.0357 99.3751 77.1428 99.3751 77.1428C99.3751 77.1428 99.4286 77.1428 99.4822 77.0893L99.5358 77.0357L99.5893 77.0893C99.6965 77.3035 99.9644 79.3393 99.9644 79.5V79.5535V79.6071C99.9108 79.6607 99.8572 80.25 99.8572 80.3571C99.8572 80.3571 99.9644 80.4107 100.071 80.4643H100.125V80.5178C100.179 80.625 100.393 81.0535 100.393 81.2678V81.3214V81.375C100.339 81.4821 100.286 81.5357 100.286 81.5893C100.286 81.6964 100.339 81.8571 100.339 82.2857C100.339 82.5535 100.286 82.875 100.232 83.3571C100.125 83.5178 100.179 83.5714 100.179 83.5714ZM96.3751 68.6785C96.3751 68.4643 96.4286 68.25 96.4286 68.25V68.1428H96.4822C96.4822 68.1428 96.4822 68.0893 96.5358 68.0893C96.5358 68.0357 96.5894 67.9821 96.5894 67.9285V67.5C96.5894 67.5 96.5894 67.3928 96.5894 67.2857C96.5894 67.0714 96.5358 66.8035 96.3751 66.4821C96.3751 66.4821 96.0536 66.0535 95.6786 65.5714C95.3036 65.1428 94.8215 64.6607 94.6608 64.7143C94.6072 64.7143 94.5536 64.7143 94.5536 64.7143H94.5001V70.875C94.5536 70.875 94.6608 70.875 94.7679 70.875C94.8215 70.875 94.9286 70.875 94.9822 70.875C95.3036 70.8214 95.6786 70.5535 95.7858 70.4464C96.0001 70.2321 96.2679 69.2678 96.3751 68.8928C96.3751 68.7857 96.3751 68.7321 96.3751 68.6785ZM108.107 71.1964C108.107 71.625 108.107 72.0535 108 72.2143C107.946 72.2143 107.839 72.5893 107.732 72.75C107.732 72.8035 107.732 72.8571 107.732 72.9107C107.732 73.1785 107.786 73.4464 107.786 73.7143C107.786 73.9821 107.786 74.1964 107.679 74.4107C107.518 74.8393 107.25 75.0535 107.196 75.1071L107.036 76.125C106.821 76.6071 106.982 76.7143 106.875 76.875C106.875 77.0893 106.982 78.6428 106.982 79.8214C106.982 80.3571 106.982 80.7857 106.875 81C106.714 81.3214 106.714 81.6964 106.714 82.0714C106.714 82.1785 106.714 82.2857 106.714 82.3928C106.714 82.7678 106.714 83.1964 106.554 83.5714L106.339 84.75C106.179 85.2321 106.179 85.3393 105.911 85.6607C105.804 85.875 105.75 85.9285 105.696 85.9821C105.643 86.0357 105.643 85.9821 105.536 86.1428C105.429 86.3571 105 86.4643 104.518 86.625C103.982 86.7857 103.393 86.8928 103.125 87.0535H103.071C102.857 87.0535 102.589 86.7857 102.482 86.7857C102.375 86.9464 102.161 87 101.893 87.0535C101.625 87.1071 101.25 87.1607 101.036 87.1607C100.929 87.1607 100.875 87.1607 100.821 87.1071L100.714 87.0535L100.768 87C101.089 86.6785 101.357 86.1964 101.411 85.5535C101.411 85.5 101.411 85.5 101.411 85.4464C101.411 84.9643 101.143 84.3214 101.143 84.3214L101.089 84.2678L101.143 84.2143C101.464 84.1071 102.054 83.8393 102 83.6785C102 83.625 102 83.5714 102 83.5714C101.946 83.5714 101.893 83.5714 101.839 83.4643L101.625 82.875L101.196 81.9107L101.571 78.1071C101.089 77.5714 100.661 76.0714 100.661 75.9643V75.3214C100.661 75.1607 100.446 75.1071 100.446 74.8393C100.446 74.8393 100.393 74.0893 100.393 73.5C100.393 73.2321 100.393 73.0714 100.446 72.9107C100.393 72.8571 100.339 72.8035 100.286 72.8035H100.232L100.339 71.3571C100.286 71.25 100.286 71.1428 100.286 71.0357C100.286 70.875 100.232 70.7143 100.232 70.6607H100.179V66.4285H100.232C100.286 66.375 100.339 66.3214 100.393 66.2678V64.6607H100.446C100.5 64.6071 100.554 64.5535 100.607 64.5V63.3214C100.393 63.1071 98.8394 61.6071 98.7322 61.5535L98.6251 61.4464H99.8036V61.5C99.8572 61.5535 99.8572 61.6071 99.9108 61.6607H100.607V61.7143C100.607 61.9285 101.571 62.0357 102.054 62.5714H102.75V62.625C102.804 62.7321 102.911 62.7857 102.964 62.9464H103.661V63C103.714 63.0535 103.714 63.1071 103.768 63.1607H104.679V63.2143C104.732 63.2678 104.732 63.3214 104.786 63.375H105.75V63.4285C106.071 63.9107 106.661 64.2857 106.768 64.5C107.464 66 107.357 66.1071 107.571 66.2678H107.625L107.571 68.4107C107.625 68.5178 107.625 68.625 107.679 68.7321C107.732 68.8928 107.786 69.0535 107.786 69.1071V69.1607C108 69.1607 108.107 70.2857 108.107 71.1964ZM104.946 74.6785C104.946 74.0893 105.268 73.875 105.375 73.7678C105.429 73.5535 105.536 72.5357 105.857 72.2678V70.2321C105.696 70.125 105.643 69.8035 105.589 69.5357C105.536 69.2143 105.429 68.8928 105.429 68.8928C105.214 68.5178 104.679 68.4107 104.625 67.875C104.143 67.8214 104.089 67.3928 103.875 67.4464C103.5 67.4464 103.286 67.3928 102.964 67.3928C102.857 67.3928 102.75 67.3928 102.643 67.3928L102.536 68.1964L102.589 68.4643C102.589 68.4643 102.696 70.7143 102.696 71.5714C102.696 71.625 102.696 71.6785 102.696 71.7321C102.696 71.7857 102.75 71.8393 102.75 71.8928C102.804 72 102.857 72.1071 102.857 72.1071C102.857 72.375 103.125 73.3393 103.232 73.3928H103.286L103.232 83.3035C103.554 82.9285 104.25 81.9643 104.25 81C104.25 80.9464 104.25 80.9464 104.25 80.8928C104.464 80.0893 104.732 79.8214 104.839 79.3928C104.839 79.125 104.839 75.3214 105 74.8393C104.946 74.7857 104.946 74.7321 104.946 74.6785ZM69.6965 83.25L69.5894 83.1964C69.4286 83.1428 69.3751 83.1428 69.2679 83.1428C69.2144 83.1428 69.1608 83.1428 69.1072 83.1428H69.0536C69.0001 83.1428 68.8929 83.1428 68.7322 83.25H68.6786L68.6251 83.1964C68.5715 83.1428 68.1965 83.0893 67.8215 83.0893C67.1786 83.0893 66.4286 83.1428 66.2144 83.25C65.8929 83.5178 65.8394 83.625 65.7322 83.625C65.6786 83.625 65.6786 83.5714 65.6251 83.5714C65.5179 83.5178 65.4644 83.4107 65.3572 83.3571L65.3036 83.3035L65.3572 83.25C65.9465 82.5 65.6251 82.7143 66.3215 82.2857C66.4822 81.8035 66.4822 80.0893 66.4822 79.6071V79.3928H66.5358C66.7501 79.2321 66.6965 79.2321 66.6965 79.1785C66.6965 79.125 66.6965 79.0714 66.6965 78.9643C66.6965 78.8035 66.4822 78.6964 66.4822 78.2678C66.4822 78 66.5894 77.5714 66.7501 77.4107L66.6965 68.5714H66.7501C66.8036 68.5178 66.8572 68.4643 66.9108 68.4643C66.9108 68.4643 66.9108 68.4643 66.9644 68.4643C66.9644 68.4107 66.9108 68.4107 66.8036 68.3571H66.7501L66.4286 63.75C66.3751 63.5357 66.2144 63.4821 66.0001 63.4285C65.8394 63.375 65.6251 63.3214 65.5715 63.1607C65.3572 63.1607 65.3036 63.1607 65.2501 63.0535C65.1965 63 65.1965 62.9464 64.9822 62.7857L64.9286 62.7321L64.9822 62.6785C65.0358 62.5714 65.1429 62.4643 65.1965 62.4107L65.2501 62.3571H65.3036C65.5179 62.4107 66.4822 62.4643 67.3929 62.4643C68.1965 62.4643 69.0536 62.4107 69.2144 62.3571H69.2679L69.3215 62.4107C69.3751 62.5178 69.4822 62.625 69.5894 62.7321V63.2143H69.5358C69.0536 63.375 68.4644 63.8035 68.5179 64.1785C68.5179 64.5 68.5715 64.4464 68.5715 64.5C68.6251 64.5 68.7322 64.6071 68.7322 64.875C68.7322 65.0893 68.6251 65.1964 68.5715 65.25C68.4644 65.3035 68.4644 65.3571 68.4644 65.4643C68.4644 66.1071 68.5715 67.9285 68.5715 69.4285C68.5715 70.1785 68.5715 70.8214 68.4644 71.3035C68.5179 71.3571 68.5179 71.4643 68.5715 71.5714C68.5715 71.6785 68.6251 71.8393 68.6251 71.8928H68.6786L68.7858 72.5357L68.7322 72.5893C68.6251 72.6428 68.6251 72.6964 68.5179 72.75C68.4108 72.8571 68.3572 73.0714 68.3572 73.2321C68.3572 73.4464 68.4108 73.6071 68.4108 73.7143C68.4108 73.7678 68.4108 73.8214 68.4108 73.9285C68.4108 74.0357 68.4108 74.1964 68.4644 74.4643C68.4644 74.625 68.4644 74.8928 68.5179 75C68.5179 75.0535 68.5179 75.0535 68.5179 75.0535H68.5715V75.1071C68.5715 75.2678 68.6251 75.375 68.6251 75.4821C68.6251 75.75 68.6251 75.9643 68.5715 75.9643V76.0178H68.5179C68.4108 76.0714 68.4108 76.125 68.3036 76.1785C68.1429 76.3393 68.1429 76.4464 68.1429 76.5535C68.1429 76.8214 68.3572 77.1428 68.3572 77.7321V77.8393C68.3572 77.9464 68.5715 78.5357 68.6251 78.6428H68.6786L68.5715 80.1964H68.5179C68.4108 80.25 68.4108 80.3035 68.3036 80.3571C68.2501 80.4643 68.1965 80.5178 68.1965 80.625C68.1965 80.7321 68.2501 80.8928 68.3036 81.1071C68.4644 81.8035 68.4108 81.4285 69.6965 82.3393V83.25ZM77.0358 87.8035H74.1429V87.75C74.0893 87.6964 74.0894 87.6428 74.0358 87.5893H73.3394V87.5357C73.2322 87.3214 73.1786 87.3214 73.1251 87.3214C73.0715 87.3214 73.0715 87.3214 73.0179 87.3214C72.9108 87.3214 72.8036 87.2678 72.6429 87.1071H70.6608C70.3394 87.1071 70.2322 86.8928 70.1786 86.7857C69.7501 86.7321 67.1786 86.7321 65.7858 86.7321C65.2501 86.7321 64.9286 86.7321 64.9286 86.7321H64.8751V86.6785C64.8215 86.5178 64.2858 86.3571 64.2858 86.3571H63.5358C63.3751 86.4643 62.3036 87.1607 62.2501 87.4285V87.4821H62.1965C62.1965 87.4821 61.5536 87.375 60.9644 87.375C60.6965 87.375 60.4286 87.4285 60.3215 87.4821L60.2679 87.5357L60.2144 87.4821C60.1608 87.375 60.1072 87.375 60.0536 87.2678L60.0001 87.2143L60.0536 87.1607C60.2144 86.9464 60.1608 87.0535 60.2679 86.7857V86.7321L60.8572 86.4107C61.0715 86.1964 61.0715 86.3035 61.6072 85.8214V84.8571H61.6608C61.7144 84.8035 61.8215 84.75 61.8215 84.6428C61.8215 84.5357 61.7679 84.5357 61.6608 84.4285H61.6072V82.7143H61.6608C61.7144 82.6607 61.7679 82.6071 61.8215 82.5535V81.8035H61.8751C62.0894 81.6428 62.0358 81.6964 62.0358 81.6428C62.0358 81.5893 62.0358 81.5357 62.0358 81.4821C62.0358 81.2143 61.8215 81.0535 61.6608 80.9464H61.6072V78.1071H61.6608C61.8215 78.0535 61.7679 78.0535 61.8215 77.9464C61.7679 77.6785 61.7679 77.4107 61.7679 77.1964C61.7679 76.7678 61.8215 76.4464 61.8215 76.4464V76.3928H61.8751C61.9286 76.3393 61.9822 76.2857 62.0358 76.2321V73.9285H62.0894C62.1429 73.9285 62.3036 73.6607 62.3036 73.4464C62.3036 73.4464 62.3036 73.4464 62.3036 73.3928C62.3036 73.2321 62.1429 73.0178 62.0894 72.9643H62.0358V69.8035C61.9822 69.75 61.9286 69.6964 61.8751 69.6428H61.8215V67.9285H61.8751C62.0358 67.8214 62.0894 67.7143 62.2501 67.5535C62.2501 67.4464 62.3036 67.0178 62.3036 66.5893C62.3036 66.375 62.3036 66.1607 62.2501 66.0535C62.1965 66 62.1429 65.9464 62.0894 65.8928L62.0358 65.8393L62.0894 65.7857C62.1965 65.6785 62.4644 64.9821 62.4108 64.7678C62.3572 64.1785 62.0358 63.6428 62.0358 63.5893C62.0358 63.5357 61.7679 63.4821 61.6072 63.4821C61.5536 63.4821 61.5536 63.4821 61.5001 63.4821V63.5357L61.4465 63.4821C61.1786 63.3214 61.5001 63.1607 60.3751 62.3571L60.3215 62.3035L60.3751 62.25C60.5358 62.0357 60.4822 62.1428 60.5894 61.875V61.8214H60.9644V61.875C61.0179 61.9285 61.0179 61.9821 61.0715 62.0357H62.7322V62.0893C62.9465 62.4643 63.1072 62.5178 63.2144 62.5178C63.2679 62.5178 63.3215 62.4643 63.4286 62.4643C63.4822 62.4643 63.4822 62.4643 63.5358 62.5178C63.5358 62.5178 64.1786 63.3214 64.4465 63.5357H64.5001V65.625H64.4465C64.2858 65.7321 64.2858 65.7321 64.2858 65.8928C64.2858 65.8928 64.2858 66.0535 64.6608 66.3214H64.7144V67.2857H64.6608C64.6072 67.3393 64.5536 67.3928 64.5001 67.4464V71.8393C64.6608 72 64.7679 72 64.9286 72.2143C65.0358 72.4285 65.0358 72.9643 65.0358 73.6071C65.0358 74.9464 64.9286 76.7143 64.9286 76.7143V76.7678H64.8751C64.8215 76.8214 64.7679 76.875 64.7144 76.9285V78.4285C64.7679 78.4821 64.8215 78.5357 64.8751 78.5893H64.9286V78.6428C64.9286 78.75 64.9286 78.8571 64.9286 79.0714C64.9286 79.4464 64.9286 79.875 64.9286 79.875V79.9285H64.8751C64.6072 79.9821 64.6608 80.1428 64.5536 80.4643C64.7144 80.6785 64.7679 80.625 64.7679 80.8393V80.8928C64.7679 81.1607 64.7144 81.1607 64.5536 81.3214V82.2857H64.5001C64.4465 82.3393 64.3929 82.3928 64.3394 82.4464V83.8393H64.2858C64.1786 83.9464 64.1786 84 64.1251 84.1071C64.1251 84.1607 64.1251 84.1607 64.1251 84.1607C64.0715 84.1607 64.3394 84.1607 64.3394 84.75C64.7144 84.75 64.9822 84.8035 65.3572 84.8035C65.5179 84.8035 65.7322 84.8035 66.0001 84.75C66.1608 84.4821 66.2679 84.4285 66.5894 84.2143C66.6429 84.2143 66.6429 84.2143 66.6965 84.2143C67.0715 84.2143 67.6608 84.5357 68.4108 84.5357C68.7322 84.5357 69.1072 84.4821 69.4286 84.2678C69.4822 84.1607 69.5894 84.1071 69.7501 84.1071C69.9644 84.0535 70.2322 84.0535 70.5536 84C71.1965 83.9464 72.0536 83.9464 72.9108 83.9464C74.7858 83.9464 76.6608 84 76.6608 84H76.7144V86.6785V86.7321C76.7144 86.7857 76.7679 86.8393 76.8215 86.9464C76.8751 87.1071 76.9822 87.2678 77.0893 87.4285L77.0358 87.8035ZM108.964 62.7857C108.964 63.0535 108.857 63.375 108 63.375C107.143 63.375 106.982 63 106.982 62.7857V61.9821C106.982 61.7143 107.143 61.3928 108 61.3928C108.857 61.3928 108.964 61.7678 108.964 61.9821V62.7857ZM108.804 61.9821C108.804 61.7678 108.643 61.5535 108 61.5535C107.304 61.5535 107.196 61.7678 107.196 61.9821V62.8393C107.196 63.0535 107.357 63.2678 108 63.2678C108.696 63.2678 108.804 63.0535 108.804 62.8393V61.9821ZM107.732 62.5714V63C107.732 63 107.732 63.0535 107.679 63.0535H107.571C107.518 63.0535 107.518 63.0535 107.518 63V61.8214C107.518 61.7678 107.518 61.7678 107.571 61.7678H108C108.375 61.7678 108.429 61.9285 108.429 62.0893V62.1964C108.429 62.3035 108.375 62.4643 108.214 62.5178L108.429 62.9464C108.429 62.9464 108.429 63 108.375 63H108.268C108.268 63 108.214 63 108.214 62.9464L108.054 62.5178H108H107.732V62.5714ZM107.732 61.9285V62.4107H108C108.214 62.4107 108.268 62.3035 108.268 62.1964V62.1428C108.268 62.0357 108.161 61.9285 108 61.9285H107.732Z" fill="#B1B1B1"/>
</svg>
